<?xml version="1.0" encoding="utf-8"?>
<!-- Generator: Adobe Illustrator 19.1.0, SVG Export Plug-In . SVG Version: 6.00 Build 0)  -->
<svg version="1.1" id="Layer_1" xmlns="http://www.w3.org/2000/svg" xmlns:xlink="http://www.w3.org/1999/xlink" x="0px" y="0px"
	 viewBox="0 0 290 60" style="enable-background:new 0 0 290 60;" xml:space="preserve">
<style type="text/css">
	.st0{fill:#222222;}
	.st1{fill:#EADFCF;}
</style>
<path class="st0" d="M260.8,57.5H29.2C14.1,57.5,1.8,45.2,1.8,30v0c0-15.2,12.3-27.5,27.5-27.5h231.5c15.2,0,27.5,12.3,27.5,27.5v0
	C288.3,45.2,275.9,57.5,260.8,57.5z"/>
<g>
	<path class="st1" d="M194.9,16.8c-1.2,0.9-0.7,2.8,0.7,3.1c1.4,0.3,2.5-1.2,1.8-2.6C197.1,16.6,195.6,16.3,194.9,16.8z"/>
	<path class="st1" d="M90.8,28.3c0-4.8-0.1-5.3-1-6.4c-0.3-0.3-0.8-0.8-1.2-0.9c-0.7-0.3-2.6-0.5-3.5-0.3c-0.9,0.2-1.7,0.6-2.3,1.3
		c-0.6,0.6-1,1.6-0.8,1.9c0.1,0.2,1.6,0.5,2.3,0.5c0.1,0,0.3-0.2,0.5-0.5c0.4-1,1.5-1.4,2.4-1c0.4,0.2,0.7,1,0.7,1.6v0.6l-1.3,0
		c-1.7,0-2.9,0.5-3.8,1.4c-0.8,0.8-1.1,1.5-1.1,2.8c0,1.1,0.4,1.9,1.1,2.6c0.7,0.6,1.4,0.8,2.5,0.8c1-0.1,1.7-0.5,2.3-1.3
		c0.4-0.6,0.5-0.5,0.7,0.4l0.1,0.5l1,0.1C91,32.6,90.8,33.1,90.8,28.3z M87.8,27.7c0,1.9-0.6,2.8-1.7,2.8c-0.9,0-1.3-0.5-1.4-1.5
		c-0.1-1.3,0.9-2.3,2.4-2.3h0.7V27.7z"/>
	<path class="st1" d="M95.5,32.5l0.1-3.8c0.1-4.4,0.2-4.8,1.1-5.2c0.5-0.2,0.7-0.2,1.1-0.1c1,0.3,1,0.5,1.1,5l0,4h1.4
		c1.1,0,1.4,0,1.5-0.2c0-0.1,0.1-1.9,0.1-3.8c0-2.8,0-3.7,0.2-4.1c0.5-1.1,2-1.2,2.6-0.2c0.2,0.4,0.3,1,0.3,4.4c0,3.4,0.1,4,0.3,4
		c0.1,0,0.8,0,1.5,0l1.2-0.1l0-3.5c0-4-0.1-5.5-0.6-6.5c-0.7-1.4-2-2-3.5-1.7c-0.7,0.2-1,0.3-1.6,0.9c-0.4,0.4-0.7,0.8-0.7,0.9
		c0,0.3-0.2,0.1-0.6-0.5c-0.7-1.2-2.3-1.8-3.5-1.3c-0.7,0.3-1.3,0.7-1.6,1.3c-0.3,0.5-0.4,0.4-0.6-0.5L95.1,21h-1.2h-1.2l0,5.8
		l0,5.8h1.4H95.5z"/>
	<path class="st1" d="M109.9,27.4c-0.9,1.6-0.5,3.8,1,4.8c0.8,0.6,2.2,0.7,3.1,0.3c0.6-0.2,1.6-1.1,1.6-1.4c0-0.1,0.1-0.2,0.1-0.2
		s0.2,0.3,0.3,0.7l0.1,0.7h1.3h1.3v-4.3c0-4.7,0-4.9-0.8-6c-0.8-1.1-3-1.8-4.8-1.4c-1,0.2-1.7,0.6-2.3,1.2c-0.6,0.6-1.1,1.8-0.9,2.1
		c0.1,0.2,1.6,0.5,2.2,0.5c0.3,0,0.4-0.1,0.5-0.5c0.1-0.3,0.4-0.6,0.7-0.8c1.1-0.7,2.3-0.1,2.4,1.3l0.1,0.8l-1.3,0
		C112.3,25.3,110.7,26,109.9,27.4z M115.8,26.8l-0.1,1.2c-0.1,1.3-0.3,2-0.9,2.4c-0.4,0.3-1.3,0.3-1.7,0c-0.6-0.5-0.7-1.7-0.2-2.6
		c0.3-0.5,1.3-0.9,2.2-0.9H115.8z"/>
	<path class="st1" d="M133.3,20.8c-0.9,0.2-1.7,0.7-2.3,1.4c-2.3,2.5-2.3,6.9,0.1,9.3c2.1,2.1,5.8,1.6,7.3-1
		c1.7-2.8,1.1-6.8-1.1-8.7C136.3,20.9,134.6,20.4,133.3,20.8z M134.4,30.4c-0.6,0-0.7-0.1-1.1-0.5c-0.6-0.7-0.8-1.4-0.8-3.1
		c0-2.1,0.4-3.3,1.4-3.7c0.4-0.2,1.2,0,1.6,0.4c0.6,0.6,0.9,1.6,0.9,3.2C136.3,29.2,135.7,30.4,134.4,30.4z"/>
	<path class="st1" d="M148.3,21c-0.6-0.3-1.7-0.4-2.3-0.2c-0.7,0.2-1.4,0.8-1.7,1.3c-0.3,0.5-0.5,0.6-0.5,0.2c0-0.1-0.1-0.5-0.2-0.8
		l-0.2-0.6l-1.2,0l-1.2,0v5.7v5.7l1.5,0l1.5,0l0-3.9c0-3.6,0.1-3.9,0.3-4.4c0.4-0.7,1.3-1.1,2-0.7c0.2,0.1,0.6,0.4,0.7,0.6
		c0.3,0.4,0.3,0.6,0.4,4.4l0,4h1.4h1.4v-4.3c0-3.9,0-4.3-0.3-5.2C149.6,22.1,149,21.4,148.3,21z"/>
	<path class="st1" d="M168,20.7c-0.9,0.1-1.3,0.4-2.1,1.3l-0.7,0.8l-0.2-0.4c-0.5-1-1.7-1.7-2.8-1.7c-0.2,0-0.6,0.1-1,0.2
		c-0.6,0.2-1.1,0.7-1.6,1.4l-0.3,0.4l-0.1-0.6c-0.2-1-0.2-1.1-1.5-1.1h-1.2v5.7v5.7h1.4h1.4l0.1-4c0.1-3.7,0.1-4,0.4-4.4
		c0.7-0.9,1.8-1,2.4-0.2c0.3,0.4,0.3,0.7,0.4,4.5l0.1,4l1.3,0.1c0.7,0,1.4,0,1.5-0.1c0.2-0.1,0.2-1.1,0.2-4c0-3.7,0.1-3.9,0.4-4.3
		c0.7-0.9,1.8-1,2.4-0.2c0.3,0.4,0.3,0.7,0.4,4.5l0.1,4h1.4h1.4l0-3.8c0-4-0.1-5.2-0.6-6.2C170.6,21.2,169.3,20.5,168,20.7z"/>
	<path class="st1" d="M189.5,25.4c-0.7-0.2-1.4-0.4-1.7-0.5c-1.1-0.6-0.6-1.9,0.8-1.9c0.5,0,0.7,0.1,1.1,0.4
		c0.2,0.2,0.4,0.5,0.4,0.7c0,0.4,0.2,0.4,1.2,0.2c1.7-0.3,1.8-0.3,1.2-1.6c-0.8-1.7-3.2-2.6-5.4-2c-1.8,0.5-2.7,1.7-2.7,3.4
		c0,1,0.4,1.9,1.1,2.4c0.6,0.5,1,0.6,2.8,1.1c0.7,0.2,1.5,0.5,1.6,0.6c0.7,0.6,0.4,1.8-0.6,2c-1.1,0.3-2-0.2-2.3-1.4
		c-0.1-0.3-0.2-0.6-0.3-0.7c-0.2-0.1-2.1,0.2-2.4,0.4c-0.3,0.3,0.3,2,1,2.7c1.1,1.2,3.5,1.7,5.2,1c1.7-0.6,2.6-1.8,2.6-3.4
		c0-1.2-0.1-1.6-0.7-2.3C191.7,26.2,191.1,25.8,189.5,25.4z"/>
	<path class="st1" d="M207.3,28.3c-1.5-0.2-1.5-0.2-1.7,0.5c-0.4,1-0.9,1.6-1.7,1.6c-1.2,0-1.9-1.3-1.9-3.7c0-1.7,0.3-2.8,0.9-3.3
		c0.5-0.5,1.3-0.5,1.8-0.2c0.3,0.2,0.9,1.3,0.9,1.6c0,0.5,0.4,0.5,1.6,0.3c1.2-0.2,1.2-0.2,1.2-0.7c0-1.2-1.4-3-2.7-3.5
		c-0.9-0.4-2.3-0.4-3.2-0.1c-2,0.7-3.4,2.7-3.6,5.3c-0.2,2.9,1.2,5.6,3.4,6.4c1.8,0.7,3.9,0.1,5.1-1.3c0.6-0.7,1-1.7,1-2.3
		C208.4,28.5,208.3,28.5,207.3,28.3z"/>
	<path class="st1" d="M128.4,30.2c-0.6-0.4-2-0.7-3.2-0.7c-0.6,0-1.2,0-1.2-0.1s1-1.4,2.2-3l2.2-3v-1.2v-1.2h-4c-3.1,0-4,0-4,0.2
		c0,0.9,0,2,0.1,2.1c0.1,0.1,1.1,0.1,2.4,0.2l2.3,0.1l-2.4,3.4l-2.4,3.4v1.2c0,0.9,0,1.2,0.2,1.2c0.1,0,0.7-0.1,1.4-0.3
		c1.6-0.4,3.7-0.4,5.3,0c1.7,0.5,1.6,0.5,1.6-0.7C128.7,30.6,128.7,30.4,128.4,30.2z"/>
	<path class="st1" d="M179.9,20.9v3.5c0,1.9-0.1,3.8-0.2,4.2c-0.3,1.2-1.3,1.8-2.3,1.4c-0.7-0.3-0.8-0.5-0.9-4.9l-0.1-4.1l-1.4,0
		c-1.1,0-1.4,0-1.5,0.2c0,0.1-0.1,2.1,0,4.5l0,4.3l0.5,1c0.6,1.3,1.3,1.8,2.6,1.9c1.2,0.1,2.1-0.3,2.7-1.3c0.3-0.4,0.5-0.6,0.5-0.5
		c0,0.1,0.1,0.5,0.2,0.8l0.1,0.6l1.3,0l1.2,0v-5.8v-5.8h-1.4H179.9z"/>
	<path class="st1" d="M196,20.9c-0.7,0-1.4,0-1.4,0.1c-0.1,0-0.1,2.7-0.1,5.8v5.7l1.5,0l1.5,0l0-5.4c0-3,0-5.6,0-5.8
		C197.4,20.9,197.3,20.9,196,20.9z"/>
	<path class="st1" d="M123.6,33.6c-1.1,0.2-2.7,1-3,1.4c-0.2,0.4-0.2,0.4,0,0.6c0.2,0.1,0.4,0.2,0.6,0.1c0.2,0,0.9-0.2,1.6-0.2
		c1.9-0.2,3.1,0,3.1,0.7c0,0.4-0.5,1.7-1.2,3c-0.6,1.2-0.7,1.4-0.5,1.6c0.3,0.4,0.6,0.3,1.5-0.6c1-1,1.6-1.8,1.9-3.1
		c0.4-1.3,0.4-2.5-0.1-2.9C127.1,33.6,125.2,33.3,123.6,33.6z"/>
	<path class="st1" d="M123.5,36.9c-0.1,0-0.9,0.3-1.8,0.7c-4.3,1.9-8.8,2.7-14.3,2.5c-6.8-0.2-12-1.9-16.6-5.4
		c-0.8-0.6-1.4-0.7-1.5-0.3c-0.2,0.5,0.4,1.3,2,2.9c3,3,6.4,4.8,11.1,5.8c1.4,0.3,2,0.3,5.7,0.3c4.5,0,5.6-0.2,8.6-1.1
		c4-1.3,8.1-4.2,7.4-5.2C123.8,37,123.6,36.9,123.5,36.9z"/>
</g>
</svg>
