<?xml version="1.0" encoding="utf-8"?>
<!-- Generator: Adobe Illustrator 19.1.0, SVG Export Plug-In . SVG Version: 6.00 Build 0)  -->
<svg version="1.1" id="Layer_1" xmlns="http://www.w3.org/2000/svg" xmlns:xlink="http://www.w3.org/1999/xlink" x="0px" y="0px"
	 viewBox="0 0 285 55" style="enable-background:new 0 0 285 55;" xml:space="preserve">
<style type="text/css">
	.st0{fill:#58767C;}
	.st1{fill:#EADFCF;}
</style>
<path class="st0" d="M257.5,55h-230C12.3,55,0,42.7,0,27.5l0,0C0,12.3,12.3,0,27.5,0h230C272.7,0,285,12.3,285,27.5l0,0
	C285,42.7,272.7,55,257.5,55z"/>
<g>
	<path class="st1" d="M204.9,15.8c-1.5,1.2-0.9,3.5,0.9,3.9c1.8,0.3,3.1-1.5,2.3-3.2C207.6,15.4,205.8,15,204.9,15.8z"/>
	<path class="st1" d="M74.8,30.1c0-6-0.1-6.7-1.3-8c-0.4-0.4-1.1-0.9-1.5-1.1c-0.9-0.4-3.2-0.6-4.3-0.3c-1.2,0.2-2.2,0.8-2.9,1.7
		c-0.7,0.8-1.2,1.9-1,2.4c0.1,0.2,2,0.7,2.8,0.7c0.2,0,0.4-0.3,0.6-0.6c0.5-1.2,1.9-1.8,3-1.3c0.5,0.3,0.9,1.2,0.9,2v0.7l-1.7,0
		c-2.1,0-3.6,0.6-4.8,1.8c-1,1-1.3,1.9-1.3,3.5c0,1.4,0.5,2.4,1.4,3.2c0.9,0.8,1.8,1.1,3.1,1c1.2-0.1,2.1-0.6,2.8-1.6
		c0.5-0.7,0.6-0.6,0.8,0.5l0.1,0.7l1.3,0.1C75,35.5,74.8,36.1,74.8,30.1z M71,29.4c0,2.4-0.7,3.5-2.1,3.5c-1.1,0-1.7-0.6-1.8-1.8
		c-0.2-1.6,1.2-2.9,3-2.9H71V29.4z"/>
	<path class="st1" d="M91.1,20.7c-0.9,0.2-1.2,0.4-2,1.2c-0.5,0.5-0.9,1-0.9,1.1c0,0.4-0.3,0.1-0.7-0.6c-0.8-1.5-2.8-2.2-4.4-1.6
		c-0.8,0.3-1.6,0.9-2,1.7c-0.3,0.7-0.5,0.5-0.7-0.6L80.2,21h-1.5h-1.5l-0.1,7.2l0,7.2h1.8h1.8l0.1-4.8c0.1-5.5,0.2-6,1.4-6.5
		c0.6-0.2,0.8-0.2,1.3-0.1c1.2,0.4,1.3,0.6,1.4,6.3l0.1,5.1h1.8c1.4,0,1.8-0.1,1.9-0.3c0.1-0.2,0.1-2.3,0.1-4.8
		c0-3.5,0.1-4.7,0.3-5.2c0.6-1.4,2.5-1.5,3.3-0.2c0.3,0.5,0.3,1.3,0.4,5.5c0.1,4.3,0.1,4.9,0.4,5c0.2,0,1,0,1.8,0l1.5-0.1l0.1-4.3
		c0.1-5-0.1-6.8-0.8-8.2C94.6,21,93,20.2,91.1,20.7z"/>
	<path class="st1" d="M99.7,22.2c-0.7,0.7-1.4,2.2-1.1,2.6c0.1,0.2,2,0.6,2.8,0.6c0.3,0,0.5-0.2,0.6-0.7c0.1-0.4,0.5-0.8,0.8-1
		c1.4-0.8,2.9-0.1,3.1,1.6l0.1,0.9l-1.7,0c-2.7,0-4.7,1-5.7,2.8c-1.1,2-0.6,4.8,1.2,6c1,0.7,2.7,0.9,3.9,0.4c0.8-0.3,2-1.4,2-1.8
		c0-0.1,0.1-0.2,0.2-0.2s0.2,0.4,0.3,0.9l0.2,0.9h1.6h1.6v-5.4c0-5.8,0-6.1-1.1-7.5c-1-1.4-3.7-2.2-6-1.7
		C101.4,20.9,100.4,21.4,99.7,22.2z M105.9,29.7c-0.1,1.6-0.4,2.5-1.1,2.9c-0.5,0.4-1.6,0.4-2.2,0c-0.8-0.6-0.9-2.1-0.2-3.3
		c0.4-0.6,1.6-1.2,2.7-1.2h0.9L105.9,29.7z"/>
	<path class="st1" d="M132.9,21.9c-1.3-1.1-3.4-1.6-5-1.2c-1.2,0.3-2.1,0.8-2.9,1.8c-2.9,3.2-2.8,8.6,0.2,11.7
		c2.7,2.7,7.2,2,9.1-1.3C136.4,29.3,135.7,24.3,132.9,21.9z M129.2,32.7c-0.7,0-0.9-0.1-1.4-0.7c-0.8-0.9-1-1.7-1-3.9
		c0-2.6,0.5-4.1,1.7-4.6c0.5-0.2,1.5,0,2,0.5c0.8,0.7,1.1,2,1.1,3.9C131.7,31.2,130.8,32.7,129.2,32.7z"/>
	<path class="st1" d="M146.6,20.9c-0.7-0.4-2.1-0.5-2.9-0.3c-0.8,0.3-1.8,1-2.1,1.6c-0.4,0.7-0.6,0.8-0.6,0.3c0-0.2-0.1-0.6-0.2-1
		l-0.2-0.7l-1.5,0.1l-1.5,0.1v7.2v7.2l1.8,0.1l1.8,0.1l0.1-4.9c0.1-4.5,0.1-4.9,0.4-5.5c0.5-0.9,1.7-1.3,2.5-0.9
		c0.3,0.2,0.7,0.5,0.9,0.8c0.4,0.5,0.4,0.8,0.5,5.5l0.1,5h1.8h1.8v-5.3c0-4.9,0-5.4-0.4-6.5C148.3,22.4,147.5,21.4,146.6,20.9z"/>
	<path class="st1" d="M171.3,20.6c-1.1,0.2-1.7,0.5-2.6,1.6l-0.9,1l-0.3-0.5c-0.6-1.2-2.2-2.1-3.5-2.1c-0.3,0-0.8,0.1-1.2,0.3
		c-0.7,0.3-1.4,0.8-2,1.8l-0.3,0.5l-0.1-0.8c-0.2-1.3-0.3-1.3-1.9-1.3h-1.5v7.2v7.2h1.8h1.8l0.1-4.9c0.1-4.6,0.1-5,0.5-5.5
		c0.9-1.2,2.2-1.2,3-0.2c0.4,0.5,0.4,0.8,0.5,5.6l0.1,5l1.6,0.1c0.9,0.1,1.7,0,1.8-0.1c0.2-0.2,0.3-1.3,0.3-5
		c0.1-4.6,0.1-4.9,0.5-5.4c0.9-1.2,2.2-1.2,3-0.2c0.4,0.5,0.4,0.8,0.5,5.6l0.1,5h1.8h1.8l0.1-4.8c0.1-5-0.1-6.5-0.7-7.8
		C174.5,21.2,172.8,20.3,171.3,20.6z"/>
	<path class="st1" d="M198.1,26.5c-0.9-0.2-1.8-0.5-2.1-0.7c-1.4-0.7-0.7-2.4,0.9-2.4c0.6,0,0.9,0.1,1.4,0.5
		c0.3,0.3,0.5,0.7,0.5,0.8c0,0.5,0.2,0.5,1.5,0.3c2.1-0.3,2.2-0.4,1.5-2c-1-2.1-4-3.2-6.8-2.5c-2.2,0.6-3.4,2.1-3.4,4.3
		c0,1.2,0.5,2.4,1.3,3c0.8,0.6,1.3,0.8,3.5,1.4c0.9,0.3,1.8,0.6,2,0.8c0.9,0.8,0.5,2.2-0.7,2.5c-1.4,0.4-2.5-0.3-2.9-1.7
		c-0.1-0.4-0.3-0.8-0.4-0.8c-0.2-0.1-2.7,0.3-3,0.5c-0.4,0.3,0.3,2.5,1.2,3.4c1.4,1.5,4.3,2.1,6.4,1.3c2.1-0.8,3.3-2.3,3.3-4.3
		c0-1.5-0.2-2-0.9-2.8C200.9,27.4,200.1,27,198.1,26.5z"/>
	<path class="st1" d="M220.4,30.1c-1.9-0.3-1.8-0.3-2.2,0.7c-0.5,1.3-1.1,1.9-2.1,1.9c-1.5,0-2.4-1.6-2.4-4.6c0-2.1,0.4-3.5,1.2-4.1
		c0.7-0.6,1.6-0.6,2.2-0.2c0.4,0.3,1.2,1.6,1.2,2c0,0.6,0.5,0.6,1.9,0.4c1.5-0.3,1.5-0.3,1.5-0.8c0-1.5-1.7-3.7-3.3-4.4
		c-1.2-0.5-2.8-0.5-4-0.1c-2.5,0.9-4.3,3.4-4.5,6.6c-0.3,3.6,1.5,7,4.2,8c2.2,0.8,4.9,0.2,6.4-1.6c0.7-0.8,1.2-2.1,1.2-2.9
		C221.7,30.4,221.7,30.3,220.4,30.1z"/>
	<path class="st1" d="M121.7,32.5c-0.7-0.5-2.5-0.9-4-0.9c-0.8,0-1.5-0.1-1.5-0.1s1.2-1.7,2.7-3.8l2.7-3.8v-1.5v-1.5h-5
		c-3.9,0-5,0.1-5,0.2c-0.1,1.1,0,2.5,0.1,2.6c0.1,0.1,1.4,0.2,2.9,0.2l2.8,0.1l-3,4.2l-3,4.2v1.5c0,1.1,0.1,1.5,0.2,1.5
		c0.2,0,0.9-0.2,1.8-0.4c2-0.5,4.6-0.5,6.6,0c2.1,0.6,2,0.6,2-0.9C122.1,32.9,122.1,32.7,121.7,32.5z"/>
	<path class="st1" d="M186.1,20.9v4.3c0,2.4-0.1,4.8-0.2,5.3c-0.3,1.5-1.6,2.3-2.9,1.7c-0.9-0.4-1-0.7-1.1-6.1l-0.1-5.1l-1.8-0.1
		c-1.4,0-1.8,0-1.8,0.2c-0.1,0.2-0.1,2.7,0,5.6l0.1,5.3l0.6,1.3c0.8,1.6,1.7,2.2,3.2,2.4c1.5,0.1,2.7-0.4,3.4-1.6
		c0.3-0.5,0.6-0.8,0.6-0.6c0,0.2,0.2,0.6,0.2,1l0.2,0.8l1.6,0.1l1.5,0.1v-7.3v-7.3h-1.8H186.1z"/>
	<path class="st1" d="M206.3,20.9c-0.9,0-1.7,0.1-1.8,0.1c-0.1,0.1-0.1,3.3-0.1,7.3v7.1l1.8-0.1l1.8-0.1l0.1-6.8c0-3.7,0-7-0.1-7.2
		C207.9,20.9,207.8,20.9,206.3,20.9z"/>
	<path class="st1" d="M115.7,36.7c-1.3,0.2-3.3,1.2-3.7,1.8c-0.3,0.5-0.3,0.5,0.1,0.8c0.2,0.2,0.5,0.2,0.8,0.2s1.1-0.2,2-0.3
		c2.4-0.3,3.9,0,3.9,0.9c0,0.5-0.6,2.1-1.5,3.8c-0.7,1.5-0.8,1.8-0.6,2c0.4,0.5,0.7,0.4,1.9-0.8c1.3-1.2,1.9-2.2,2.4-3.8
		c0.5-1.7,0.5-3.1-0.1-3.7C120.1,36.8,117.7,36.4,115.7,36.7z"/>
	<path class="st1" d="M115.7,40.9c-0.1,0-1.1,0.4-2.3,0.9c-5.4,2.4-11.1,3.4-17.9,3.2c-8.6-0.3-15-2.4-20.8-6.8
		c-1-0.7-1.7-0.9-1.9-0.4c-0.2,0.6,0.5,1.7,2.5,3.6c3.7,3.7,8,6,13.8,7.2c1.8,0.4,2.5,0.4,7.1,0.4c5.6,0,6.9-0.2,10.7-1.4
		c5-1.6,10.2-5.3,9.2-6.5C116,41,115.8,40.9,115.7,40.9z"/>
</g>
</svg>
