<?xml version="1.0" encoding="utf-8"?>
<!-- Generator: Adobe Illustrator 19.1.0, SVG Export Plug-In . SVG Version: 6.00 Build 0)  -->
<svg version="1.1" id="Layer_1" xmlns="http://www.w3.org/2000/svg" xmlns:xlink="http://www.w3.org/1999/xlink" x="0px" y="0px"
	 viewBox="0 0 285 55" style="enable-background:new 0 0 285 55;" xml:space="preserve">
<style type="text/css">
	.st0{fill:#58767C;}
	.st1{fill:#EADFCF;}
</style>
<path class="st0" d="M257.5,55h-230C12.3,55,0,42.7,0,27.5v0C0,12.3,12.3,0,27.5,0l230,0C272.7,0,285,12.3,285,27.5v0
	C285,42.7,272.7,55,257.5,55z"/>
<g transform="translate(0.000000,563.000000) scale(0.100000,-0.100000)">
	<path class="st1" d="M205.1,11c-1.5,1.2-0.9,3.5,0.9,3.9c1.8,0.3,3.1-1.5,2.3-3.2C207.9,10.7,206.1,10.3,205.1,11z"/>
	<path class="st1" d="M67.9,16c-1.2,0.2-2.2,0.8-2.9,1.7c-0.7,0.8-1.2,1.9-1,2.4c0.1,0.2,2,0.7,2.8,0.7c0.2,0,0.4-0.3,0.6-0.6
		c0.5-1.2,1.9-1.8,3-1.3c0.5,0.3,0.9,1.2,0.9,2v0.7l-1.7,0c-2.1,0-3.6,0.6-4.8,1.8c-1,1-1.3,1.9-1.3,3.5c0,1.4,0.5,2.4,1.4,3.2
		c0.9,0.8,1.8,1.1,3.1,1c1.2-0.1,2.1-0.6,2.8-1.6c0.5-0.7,0.6-0.6,0.8,0.5l0.1,0.7l1.3,0.1c2.1,0.1,1.9,0.7,1.9-5.3s-0.1-6.7-1.3-8
		c-0.4-0.4-1.1-0.9-1.5-1.1C71.4,15.9,69.1,15.7,67.9,16z M71.3,24.7c0,2.4-0.7,3.5-2.1,3.5c-1.1,0-1.7-0.6-1.8-1.8
		c-0.2-1.6,1.2-2.9,3-2.9h0.9V24.7z"/>
	<path class="st1" d="M83.3,16c-0.8,0.3-1.6,0.9-2,1.7c-0.3,0.7-0.5,0.5-0.7-0.6l-0.2-0.9h-1.5h-1.5l-0.1,7.2l0,7.2h1.8h1.8l0.1-4.8
		c0.1-5.5,0.2-6,1.4-6.5c0.6-0.2,0.8-0.2,1.3-0.1c1.2,0.4,1.3,0.6,1.4,6.3l0.1,5.1h1.8c1.4,0,1.8-0.1,1.9-0.3
		c0.1-0.2,0.1-2.3,0.1-4.8c0-3.5,0.1-4.7,0.3-5.2c0.6-1.4,2.5-1.5,3.3-0.2c0.3,0.5,0.3,1.3,0.4,5.5c0.1,4.3,0.1,4.9,0.4,5
		c0.2,0,1,0,1.8,0l1.5-0.1l0.1-4.3c0.1-5-0.1-6.8-0.8-8.2c-0.9-1.7-2.5-2.5-4.4-2.1c-0.9,0.2-1.2,0.4-2,1.2c-0.5,0.5-0.9,1-0.9,1.1
		c0,0.4-0.3,0.1-0.7-0.6C86.9,16.2,84.9,15.4,83.3,16z"/>
	<path class="st1" d="M102.8,16c-1.2,0.2-2.1,0.8-2.9,1.5c-0.7,0.7-1.4,2.2-1.1,2.6c0.1,0.2,2,0.6,2.8,0.6c0.3,0,0.5-0.2,0.6-0.7
		c0.1-0.4,0.5-0.8,0.8-1c1.4-0.8,2.9-0.1,3.1,1.6l0.1,0.9l-1.7,0c-2.7,0-4.7,1-5.7,2.8c-1.1,2-0.6,4.8,1.2,6c1,0.7,2.7,0.9,3.9,0.4
		c0.8-0.3,2-1.4,2-1.8c0-0.1,0.1-0.2,0.2-0.2c0.1,0,0.2,0.4,0.3,0.9l0.2,0.9h1.6h1.6v-5.4c0-5.8,0-6.1-1.1-7.5
		C107.7,16.2,105.1,15.5,102.8,16z M106.1,25c-0.1,1.6-0.4,2.5-1.1,2.9c-0.5,0.4-1.6,0.4-2.2,0c-0.8-0.6-0.9-2.1-0.2-3.3
		c0.4-0.6,1.6-1.2,2.7-1.2h0.9L106.1,25z"/>
	<path class="st1" d="M128.2,16c-1.2,0.3-2.1,0.8-2.9,1.8c-2.9,3.2-2.8,8.6,0.2,11.7c2.7,2.7,7.2,2,9.1-1.3
		c2.1-3.5,1.4-8.5-1.4-10.9C131.9,16.1,129.8,15.6,128.2,16z M130.8,19.4c0.8,0.7,1.1,2,1.1,3.9c0,3.2-0.8,4.7-2.5,4.7
		c-0.7,0-0.9-0.1-1.4-0.7c-0.8-0.9-1-1.7-1-3.9c0-2.6,0.5-4.1,1.7-4.6C129.3,18.7,130.3,19,130.8,19.4z"/>
	<path class="st1" d="M144,16c-0.8,0.3-1.8,1-2.1,1.6c-0.4,0.7-0.6,0.8-0.6,0.3c0-0.2-0.1-0.6-0.2-1l-0.2-0.7l-1.5,0.1l-1.5,0.1v7.2
		v7.2l1.8,0.1l1.8,0.1l0.1-4.9c0.1-4.5,0.1-4.9,0.4-5.5c0.5-0.9,1.7-1.3,2.5-0.9c0.3,0.2,0.7,0.5,0.9,0.8c0.4,0.5,0.4,0.8,0.5,5.5
		l0.1,5h1.8h1.8v-5.3c0-4.9,0-5.4-0.4-6.5c-0.4-1.2-1.2-2.1-2.1-2.6C146.2,15.9,144.7,15.7,144,16z"/>
	<path class="st1" d="M163,16c-0.7,0.3-1.4,0.8-2,1.8l-0.3,0.5l-0.1-0.8c-0.2-1.3-0.3-1.3-1.9-1.3h-1.5v7.2v7.2h1.8h1.8l0.1-4.9
		c0.1-4.6,0.1-5,0.5-5.5c0.9-1.2,2.2-1.2,3-0.2c0.4,0.5,0.4,0.8,0.5,5.6l0.1,5l1.6,0.1c0.9,0.1,1.7,0,1.8-0.1c0.2-0.2,0.3-1.3,0.3-5
		c0.1-4.6,0.1-4.9,0.5-5.4c0.9-1.2,2.2-1.2,3-0.2c0.4,0.5,0.4,0.8,0.5,5.6l0.1,5h1.8h1.8l0.1-4.8c0.1-5-0.1-6.5-0.7-7.8
		c-0.8-1.5-2.5-2.4-4-2.2c-1.1,0.2-1.7,0.5-2.6,1.6l-0.9,1l-0.3-0.5c-0.6-1.2-2.2-2.1-3.5-2.1C164,15.8,163.4,15.9,163,16z"/>
	<path class="st1" d="M195.4,16c-2.2,0.6-3.4,2.1-3.4,4.3c0,1.2,0.5,2.4,1.3,3c0.8,0.6,1.3,0.8,3.5,1.4c0.9,0.3,1.8,0.6,2,0.8
		c0.9,0.8,0.5,2.2-0.7,2.5c-1.4,0.4-2.5-0.3-2.9-1.7c-0.1-0.4-0.3-0.8-0.4-0.8c-0.2-0.1-2.7,0.3-3,0.5c-0.4,0.3,0.3,2.5,1.2,3.4
		c1.4,1.5,4.3,2.1,6.4,1.3c2.1-0.8,3.3-2.3,3.3-4.3c0-1.5-0.2-2-0.9-2.8c-0.8-0.9-1.6-1.3-3.5-1.8c-0.9-0.2-1.8-0.5-2.1-0.7
		c-1.4-0.7-0.7-2.4,0.9-2.4c0.6,0,0.9,0.1,1.4,0.5c0.3,0.3,0.5,0.7,0.5,0.8c0,0.5,0.2,0.5,1.5,0.3c2.1-0.3,2.2-0.4,1.5-2
		C201.1,16.4,198.1,15.3,195.4,16z"/>
	<path class="st1" d="M214.6,16.1c-2.5,0.9-4.3,3.4-4.5,6.6c-0.3,3.6,1.5,7,4.2,8c2.2,0.8,4.9,0.2,6.4-1.6c0.7-0.8,1.2-2.1,1.2-2.9
		c0-0.5-0.1-0.5-1.3-0.7c-1.9-0.3-1.8-0.3-2.2,0.7c-0.5,1.3-1.1,1.9-2.1,1.9c-1.5,0-2.4-1.6-2.4-4.6c0-2.1,0.4-3.5,1.2-4.1
		c0.7-0.6,1.6-0.6,2.2-0.2c0.4,0.3,1.2,1.6,1.2,2c0,0.6,0.5,0.6,1.9,0.4c1.5-0.3,1.5-0.3,1.5-0.8c0-1.5-1.7-3.7-3.3-4.4
		C217.5,15.7,215.8,15.7,214.6,16.1z"/>
	<path class="st1" d="M112,16.4c-0.1,1.1,0,2.5,0.1,2.6c0.1,0.1,1.4,0.2,2.9,0.2l2.8,0.1l-3,4.2l-3,4.2v1.5c0,1.1,0.1,1.5,0.2,1.5
		c0.2,0,0.9-0.2,1.8-0.4c2-0.5,4.6-0.5,6.6,0c2.1,0.6,2,0.6,2-0.9c0-1.2-0.1-1.3-0.4-1.6c-0.7-0.5-2.5-0.9-4-0.9
		c-0.8,0-1.5-0.1-1.5-0.1c0,0,1.2-1.7,2.7-3.8l2.7-3.8v-1.5v-1.5h-5C113.1,16.1,112,16.2,112,16.4z"/>
	<path class="st1" d="M178.5,16.4c-0.1,0.2-0.1,2.7,0,5.6l0.1,5.3l0.6,1.3c0.8,1.6,1.7,2.2,3.2,2.4c1.5,0.1,2.7-0.4,3.4-1.6
		c0.3-0.5,0.6-0.8,0.6-0.6c0,0.2,0.2,0.6,0.2,1l0.2,0.8l1.6,0.1l1.5,0.1v-7.3v-7.3h-1.8h-1.8v4.3c0,2.4-0.1,4.8-0.2,5.3
		c-0.3,1.5-1.6,2.3-2.9,1.7c-0.9-0.4-1-0.7-1.1-6.1l-0.1-5.1l-1.8-0.1C178.9,16.1,178.6,16.2,178.5,16.4z"/>
	<path class="st1" d="M204.7,16.3c-0.1,0.1-0.1,3.3-0.1,7.3v7.1l1.8-0.1l1.8-0.1l0.1-6.8c0-3.7,0-7-0.1-7.2
		c-0.1-0.4-0.2-0.4-1.8-0.4C205.6,16.1,204.8,16.2,204.7,16.3z"/>
	<path class="st1" d="M116,32c-1.3,0.2-3.3,1.2-3.7,1.8c-0.3,0.5-0.3,0.5,0.1,0.8c0.2,0.2,0.5,0.2,0.8,0.2c0.2-0.1,1.1-0.2,2-0.3
		c2.4-0.3,3.9,0,3.9,0.9c0,0.5-0.6,2.1-1.5,3.8c-0.7,1.5-0.8,1.8-0.6,2c0.4,0.5,0.7,0.4,1.9-0.8c1.3-1.2,1.9-2.2,2.4-3.8
		c0.5-1.7,0.5-3.1-0.1-3.7C120.4,32.1,118,31.6,116,32z"/>
	<path class="st1" d="M73.1,33c-0.2,0.6,0.5,1.7,2.5,3.6c3.7,3.7,8,6,13.8,7.2c1.8,0.4,2.5,0.4,7.1,0.4c5.6,0,6.9-0.2,10.7-1.4
		c5-1.6,10.2-5.3,9.2-6.5c-0.2-0.2-0.3-0.3-0.4-0.3s-1.1,0.4-2.3,0.9c-5.4,2.4-11.1,3.4-17.9,3.2c-8.6-0.3-15-2.4-20.8-6.8
		C74,32.7,73.3,32.5,73.1,33z"/>
</g>
</svg>
