<?xml version="1.0" encoding="utf-8"?>
<!-- Generator: Adobe Illustrator 19.1.0, SVG Export Plug-In . SVG Version: 6.00 Build 0)  -->
<svg version="1.1" id="Layer_1" xmlns="http://www.w3.org/2000/svg" xmlns:xlink="http://www.w3.org/1999/xlink" x="0px" y="0px"
	 viewBox="0 0 285 55" style="enable-background:new 0 0 285 55;" xml:space="preserve">
<style type="text/css">
	.st0{fill:#58767C;}
	.st1{fill:#EADFCF;}
</style>
<path class="st0" d="M257.5,55h-230C12.3,55,0,42.7,0,27.5v0C0,12.3,12.3,0,27.5,0l230,0C272.7,0,285,12.3,285,27.5v0
	C285,42.7,272.7,55,257.5,55z"/>
<g>
	<g id="_Group__2_">
		<g id="_Group_2_2_">
			<path id="_Compound_Path__2_" class="st1" d="M113.9,36h-5.7l-1.4,4.1h-2.4l5.4-15h2.5l5.4,15h-2.5L113.9,36z M108.8,34.1h4.5
				l-2.2-6.6H111L108.8,34.1z"/>
			<path id="_Compound_Path_2_2_" class="st1" d="M129.4,34.6c0,3.4-1.8,5.6-4.6,5.6c-1.4,0.1-2.8-0.7-3.4-1.9h-0.1v5.4h-2.2V29.1
				h2.2v1.8h0c0.7-1.2,2.1-2,3.5-1.9C127.6,29,129.4,31.2,129.4,34.6z M127.1,34.6c0-2.2-1.1-3.7-2.9-3.7c-1.7,0-2.9,1.5-2.9,3.7
				c0,2.2,1.2,3.7,2.9,3.7C126,38.3,127.1,36.8,127.1,34.6L127.1,34.6z"/>
			<path id="_Compound_Path_3_2_" class="st1" d="M141.5,34.6c0,3.4-1.8,5.6-4.6,5.6c-1.4,0.1-2.8-0.7-3.4-1.9h-0.1v5.4h-2.2V29.1
				h2.2v1.8h0c0.7-1.2,2.1-2,3.5-1.9C139.6,29,141.5,31.2,141.5,34.6z M139.2,34.6c0-2.2-1.1-3.7-2.9-3.7c-1.7,0-2.9,1.5-2.9,3.7
				c0,2.2,1.2,3.7,2.9,3.7C138,38.3,139.2,36.8,139.2,34.6z"/>
			<path id="_Compound_Path_4_2_" class="st1" d="M143.3,25h2.2v15h-2.2V25z"/>
			<path id="_Compound_Path_5_2_" class="st1" d="M157.2,36.8c-0.3,2-2.2,3.4-4.7,3.4c-3.2,0-5.2-2.1-5.2-5.6c0-3.4,2-5.7,5.1-5.7
				c3,0,4.9,2.1,4.9,5.4v0.8h-7.7v0.1c-0.1,1.6,1,3,2.6,3.1c0.1,0,0.2,0,0.4,0c1.1,0.1,2.1-0.5,2.5-1.5H157.2L157.2,36.8z
				 M149.6,33.6h5.5c0.1-1.5-1-2.7-2.5-2.8c-0.1,0-0.1,0-0.2,0C150.9,30.8,149.6,32,149.6,33.6C149.6,33.6,149.6,33.6,149.6,33.6z"
				/>
			<path id="_Compound_Path_6_2_" class="st1" d="M176.8,40.1V29h-0.1L172.2,40h-1.7L165.9,29h-0.1v11.1h-2.1V25h2.7l4.9,11.9h0.1
				l4.9-11.9h2.7v15H176.8z"/>
			<path id="_Compound_Path_7_2_" class="st1" d="M190.9,40.1h-2.2v-1.9h-0.1c-0.6,1.3-2,2.1-3.4,2c-2,0.1-3.7-1.4-3.9-3.4
				c0-0.2,0-0.4,0-0.6v-7h2.2v6.6c-0.2,1.2,0.6,2.3,1.8,2.5c0.2,0,0.4,0,0.6,0c1.4,0,2.6-1.1,2.6-2.5c0-0.1,0-0.3,0-0.4v-6.3h2.2
				L190.9,40.1L190.9,40.1z"/>
			<path id="_Compound_Path_8_2_" class="st1" d="M197.3,29c2.4,0,4.2,1.3,4.2,3.3h-2.1c-0.2-1-1.1-1.7-2.2-1.6l0,0
				c-1.2,0-2,0.6-2,1.4c0,0.7,0.5,1.1,1.7,1.4l1.8,0.4c2.2,0.5,3,1.3,3,2.9c0,2-1.9,3.3-4.5,3.3c-2.6,0-4.3-1.3-4.5-3.3h2.2
				c0.2,1.1,1.3,1.8,2.4,1.6c1.3,0,2.2-0.6,2.2-1.4c0-0.7-0.4-1-1.6-1.3l-2-0.5c-2-0.5-3-1.5-3-3C193,30.3,194.7,29,197.3,29z"/>
			<path id="_Compound_Path_9_2_" class="st1" d="M203.5,26.2c0-0.7,0.6-1.3,1.3-1.3s1.3,0.6,1.3,1.3s-0.6,1.3-1.3,1.3c0,0,0,0,0,0
				C204.1,27.5,203.5,26.9,203.5,26.2C203.5,26.2,203.5,26.2,203.5,26.2z M203.7,29.1h2.2v11h-2.2V29.1z"/>
			<path id="_Compound_Path_10_2_" class="st1" d="M215.6,32.9c-0.2-1.2-1.3-2.1-2.6-2c-1.7,0-2.9,1.4-2.9,3.7
				c0,2.3,1.2,3.7,2.9,3.7c1.2,0.1,2.4-0.7,2.6-2h2.2c-0.3,2.4-2.4,4.1-4.7,3.8c-3.1,0-5.2-2.1-5.2-5.6c0-3.4,2-5.6,5.1-5.6
				c2.4-0.2,4.5,1.5,4.7,3.9L215.6,32.9z"/>
		</g>
		<path id="_Compound_Path_11_2_" class="st1" d="M97.6,15.4c-0.7-1.8-2.2-3.1-4.1-3.7c-1.2-0.3-2.4-0.4-3.7-0.4H76.1
			c-1.2,0-2.5,0.1-3.7,0.4c-1.8,0.6-3.3,1.9-4.1,3.7c-0.5,1.4-0.7,2.8-0.6,4.3v13.7c-0.1,1.5,0.1,2.9,0.6,4.3
			c0.7,1.8,2.2,3.1,4.1,3.7c1.2,0.3,2.4,0.4,3.7,0.4h13.7c1.2,0,2.5-0.1,3.7-0.4c1.8-0.6,3.3-1.9,4.1-3.7c0.5-1.4,0.7-2.8,0.6-4.3
			V19.7C98.2,18.2,98,16.8,97.6,15.4z M89.9,32.2c-0.1,0.4-0.2,0.7-0.4,1c-0.2,0.3-0.5,0.6-0.8,0.8c-0.3,0.2-0.7,0.3-1.1,0.4
			c-0.5,0.1-1.1,0.2-1.6,0.1c-0.4-0.1-0.8-0.3-1.1-0.6c-1-0.9-1-2.4-0.2-3.3c0,0,0,0,0.1-0.1c0.3-0.3,0.6-0.5,1-0.6
			c0.5-0.2,1.1-0.3,1.7-0.4c0.2,0,0.4-0.1,0.6-0.1c0.3,0,0.5-0.1,0.7-0.3c0.1-0.2,0.2-0.5,0.2-0.7l0-6.7c0-0.5-0.2-0.7-0.7-0.6
			c-0.3,0.1-7.9,1.6-7.9,1.6c-0.3,0-0.6,0.3-0.6,0.7c0,0,0,0.1,0,0.1l0,9.8c0,0.4,0,0.7-0.1,1.1c-0.1,0.4-0.2,0.7-0.4,1
			c-0.2,0.3-0.5,0.6-0.8,0.8c-0.3,0.2-0.7,0.3-1.1,0.4c-0.5,0.1-1.1,0.2-1.6,0.1c-0.4-0.1-0.8-0.3-1.1-0.6c-1-0.9-1-2.4-0.1-3.4
			c0.3-0.3,0.6-0.5,1-0.6c0.5-0.2,1.1-0.3,1.7-0.4c0.2,0,0.4-0.1,0.6-0.1c0.3,0,0.5-0.1,0.7-0.3c0.2-0.2,0.2-0.5,0.2-0.7V19.1
			c0-0.1,0-0.2,0-0.3c0-0.2,0.1-0.4,0.3-0.6c0.2-0.1,0.4-0.2,0.6-0.3l0,0l9-1.8c0.1,0,0.7-0.1,0.8-0.1c0.4,0,0.7,0.2,0.8,0.6
			c0,0.1,0,0.1,0,0.2l0,14.3C90,31.5,90,31.9,89.9,32.2L89.9,32.2z"/>
	</g>
	<g>
		<path class="st1" d="M109.6,20.4h-4.6v-7.3h1.1v6.3h3.4L109.6,20.4L109.6,20.4z"/>
		<path class="st1" d="M111,13.3c0-0.4,0.3-0.7,0.7-0.7c0.4,0,0.7,0.3,0.7,0.7c0,0.4-0.3,0.7-0.7,0.7c0,0,0,0,0,0
			C111.3,14,111,13.7,111,13.3C111,13.3,111,13.3,111,13.3z M111.1,14.9h1.1v5.5h-1.1V14.9z"/>
		<path class="st1" d="M116,14.8c1-0.2,2,0.5,2.2,1.6h-1c-0.2-0.5-0.6-0.7-1.1-0.7c-0.5-0.1-1,0.2-1.1,0.7c0,0.3,0.3,0.5,0.9,0.7
			l0.9,0.2c0.8,0,1.5,0.7,1.5,1.5c-0.1,1.1-1.1,1.9-2.2,1.7c0,0-0.1,0-0.1,0c-1.1,0.2-2.1-0.5-2.3-1.6h1.1c0.2,0.5,0.7,0.8,1.2,0.7
			c0.5,0.1,1-0.2,1.2-0.7c-0.1-0.4-0.4-0.7-0.8-0.7l-1-0.2c-0.8,0-1.5-0.7-1.5-1.5C113.9,15.4,114.9,14.7,116,14.8
			C115.9,14.8,115.9,14.8,116,14.8z"/>
		<path class="st1" d="M121.1,13.5v1.4h1.2v0.9h-1.2v2.8c-0.1,0.4,0.2,0.7,0.5,0.8c0.1,0,0.2,0,0.2,0c0.1,0,0.3,0,0.4,0v0.9
			c-0.2,0-0.4,0.1-0.6,0.1c-1.2,0-1.7-0.4-1.7-1.5v-3.1h-0.9v-0.9h0.9v-1.4H121.1z"/>
		<path class="st1" d="M128.4,18.9c-0.3,1-1.3,1.7-2.4,1.6c-1.4,0-2.5-1.1-2.6-2.4c0-0.1,0-0.3,0-0.4c-0.2-1.4,0.8-2.7,2.2-2.9
			c0.1,0,0.2,0,0.4,0c1.3,0,2.5,1,2.5,2.4c0,0.1,0,0.3,0,0.4V18h-3.9V18c-0.1,0.8,0.5,1.5,1.3,1.6c0,0,0.1,0,0.1,0
			c0.5,0.1,1.1-0.2,1.3-0.7L128.4,18.9z M124.6,17.2h2.8c0.1-0.7-0.5-1.4-1.2-1.4c0,0-0.1,0-0.1,0C125.2,15.7,124.6,16.3,124.6,17.2
			C124.6,17.1,124.6,17.1,124.6,17.2z"/>
		<path class="st1" d="M129.9,14.9h1.1v0.9h0.1c0.3-0.6,0.9-1,1.6-1c1-0.1,1.9,0.7,1.9,1.7c0,0.1,0,0.3,0,0.4v3.6h-1.1v-3.3
			c0.1-0.6-0.3-1.2-0.9-1.3c-0.1,0-0.2,0-0.3,0c-0.7,0-1.3,0.5-1.3,1.2c0,0.1,0,0.1,0,0.2v3.2h-1.1V14.9z"/>
		<path class="st1" d="M139,17.7c-0.1-1.4,0.9-2.7,2.4-2.9c1.4-0.1,2.7,0.9,2.9,2.4c0,0.2,0,0.3,0,0.5c0.1,1.4-0.9,2.7-2.4,2.9
			c-1.4,0.1-2.7-0.9-2.9-2.4C139,18,139,17.8,139,17.7z M143.1,17.7c0-1.2-0.5-1.9-1.5-1.9c-0.9,0-1.5,0.7-1.5,1.9
			c0,1.2,0.5,1.9,1.5,1.9C142.6,19.6,143.1,18.9,143.1,17.7z"/>
		<path class="st1" d="M145.7,14.9h1.1v0.9h0.1c0.3-0.6,0.9-1,1.6-1c1-0.1,1.9,0.7,1.9,1.7c0,0.1,0,0.3,0,0.4v3.6h-1.1v-3.3
			c0.1-0.6-0.3-1.2-0.9-1.3c-0.1,0-0.2,0-0.3,0c-0.7,0-1.3,0.5-1.3,1.2c0,0.1,0,0.1,0,0.2v3.2h-1.1V14.9z"/>
	</g>
</g>
</svg>
