<?xml version="1.0" encoding="utf-8"?>
<!-- Generator: Adobe Illustrator 19.1.0, SVG Export Plug-In . SVG Version: 6.00 Build 0)  -->
<svg version="1.1" id="Layer_1" xmlns="http://www.w3.org/2000/svg" xmlns:xlink="http://www.w3.org/1999/xlink" x="0px" y="0px"
	 viewBox="0 0 290 60" style="enable-background:new 0 0 290 60;" xml:space="preserve">
<style type="text/css">
	.st0{fill:#222222;}
	.st1{fill:#EADFCF;}
</style>
<g>
	<path class="st0" d="M260.8,57.5H29.2C14.1,57.5,1.8,45.2,1.8,30v0c0-15.2,12.3-27.5,27.5-27.5h231.5c15.2,0,27.5,12.3,27.5,27.5v0
		C288.3,45.2,275.9,57.5,260.8,57.5z"/>
	<g>
		<g id="_Group__1_">
			<g id="_Group_2_1_">
				<path id="_Compound_Path__1_" class="st1" d="M121.9,36.8h-4.6l-1.1,3.2h-1.9l4.3-12h2l4.3,12h-2L121.9,36.8z M117.8,35.3h3.6
					l-1.8-5.3h-0.1L117.8,35.3z"/>
				<path id="_Compound_Path_2_1_" class="st1" d="M134.3,35.7c0,2.7-1.5,4.5-3.7,4.5c-1.1,0.1-2.2-0.5-2.8-1.5h0V43h-1.8V31.3h1.7
					v1.5h0c0.6-1,1.6-1.6,2.8-1.5C132.9,31.2,134.3,33,134.3,35.7z M132.5,35.7c0-1.8-0.9-2.9-2.3-2.9c-1.4,0-2.3,1.2-2.3,2.9
					c0,1.8,0.9,2.9,2.3,2.9C131.6,38.6,132.5,37.5,132.5,35.7L132.5,35.7z"/>
				<path id="_Compound_Path_3_1_" class="st1" d="M144,35.7c0,2.7-1.5,4.5-3.7,4.5c-1.1,0.1-2.2-0.5-2.8-1.5h0V43h-1.8V31.3h1.7
					v1.5h0c0.6-1,1.6-1.6,2.8-1.5C142.5,31.2,144,33,144,35.7z M142.1,35.7c0-1.8-0.9-2.9-2.3-2.9c-1.4,0-2.3,1.2-2.3,2.9
					c0,1.8,0.9,2.9,2.3,2.9C141.2,38.6,142.1,37.5,142.1,35.7z"/>
				<path id="_Compound_Path_4_1_" class="st1" d="M145.4,28h1.8v12h-1.8V28z"/>
				<path id="_Compound_Path_5_1_" class="st1" d="M156.6,37.5c-0.2,1.6-1.8,2.7-3.8,2.7c-2.5,0-4.1-1.7-4.1-4.4
					c0-2.7,1.6-4.5,4.1-4.5c2.4,0,3.9,1.7,3.9,4.3v0.6h-6.2v0.1c-0.1,1.3,0.8,2.4,2.1,2.5c0.1,0,0.2,0,0.3,0c0.9,0.1,1.7-0.4,2-1.2
					H156.6L156.6,37.5z M150.5,34.9h4.4c0.1-1.2-0.8-2.2-2-2.2c-0.1,0-0.1,0-0.2,0C151.5,32.6,150.5,33.6,150.5,34.9
					C150.5,34.9,150.5,34.9,150.5,34.9z"/>
				<path id="_Compound_Path_6_1_" class="st1" d="M172.2,40.1v-8.8h-0.1l-3.6,8.8h-1.4l-3.6-8.8h-0.1v8.8h-1.7V28h2.2l3.9,9.5h0.1
					l3.9-9.5h2.2v12H172.2z"/>
				<path id="_Compound_Path_7_1_" class="st1" d="M183.5,40.1h-1.7v-1.5h0c-0.5,1.1-1.6,1.7-2.7,1.6c-1.6,0.1-3-1.1-3.1-2.7
					c0-0.2,0-0.3,0-0.5v-5.6h1.8v5.3c-0.2,1,0.5,1.9,1.4,2c0.1,0,0.3,0,0.4,0c1.1,0,2.1-0.8,2.1-2c0-0.1,0-0.2,0-0.3v-5h1.8
					L183.5,40.1L183.5,40.1z"/>
				<path id="_Compound_Path_8_1_" class="st1" d="M188.6,31.2c1.9,0,3.3,1.1,3.4,2.6h-1.7c-0.1-0.8-0.9-1.4-1.7-1.2l0,0
					c-1,0-1.6,0.4-1.6,1.1c0,0.5,0.4,0.9,1.3,1.1l1.5,0.3c1.8,0.4,2.4,1.1,2.4,2.4c0,1.6-1.5,2.7-3.6,2.7c-2.1,0-3.5-1.1-3.6-2.7
					h1.8c0.2,0.9,1,1.5,1.9,1.3c1.1,0,1.7-0.4,1.7-1.1c0-0.5-0.3-0.8-1.2-1.1l-1.6-0.4c-1.6-0.4-2.4-1.2-2.4-2.4
					C185.2,32.2,186.6,31.2,188.6,31.2z"/>
				<path id="_Compound_Path_9_1_" class="st1" d="M193.6,29c0-0.6,0.4-1.1,1-1.1c0.6,0,1.1,0.4,1.1,1c0,0.6-0.4,1.1-1,1.1
					c0,0,0,0,0,0C194.1,30,193.6,29.6,193.6,29C193.6,29,193.6,29,193.6,29z M193.7,31.3h1.8v8.8h-1.8V31.3z"/>
				<path id="_Compound_Path_10_1_" class="st1" d="M203.3,34.3c-0.2-1-1.1-1.7-2.1-1.6c-1.4,0-2.3,1.2-2.3,3c0,1.9,0.9,3,2.3,3
					c1,0.1,1.9-0.6,2-1.6h1.7c-0.2,1.9-1.9,3.2-3.8,3.1c-2.5,0-4.1-1.7-4.1-4.5c0-2.7,1.6-4.5,4.1-4.5c1.9-0.2,3.6,1.2,3.8,3.1
					H203.3z"/>
			</g>
			<path id="_Compound_Path_11_1_" class="st1" d="M108.9,20.3c-0.6-1.4-1.8-2.5-3.3-2.9c-1-0.2-2-0.3-2.9-0.3h-11
				c-1,0-2,0.1-2.9,0.3c-1.5,0.4-2.7,1.5-3.3,2.9c-0.4,1.1-0.5,2.3-0.5,3.4v11c-0.1,1.2,0.1,2.3,0.5,3.4c0.6,1.4,1.8,2.5,3.3,2.9
				c1,0.2,2,0.3,2.9,0.3h11c1,0,2-0.1,2.9-0.3c1.5-0.4,2.7-1.5,3.3-2.9c0.4-1.1,0.5-2.3,0.5-3.4v-11
				C109.4,22.6,109.2,21.4,108.9,20.3z M102.8,33.8c-0.1,0.3-0.2,0.6-0.4,0.8c-0.2,0.3-0.4,0.5-0.7,0.6c-0.3,0.1-0.5,0.3-0.8,0.3
				c-0.4,0.1-0.9,0.1-1.3,0.1c-0.3-0.1-0.6-0.2-0.9-0.4c-0.8-0.7-0.8-1.9-0.1-2.7c0,0,0,0,0,0c0.2-0.2,0.5-0.4,0.8-0.5
				c0.4-0.2,0.9-0.3,1.3-0.3c0.2,0,0.3-0.1,0.5-0.1c0.2,0,0.4-0.1,0.5-0.3c0.1-0.2,0.2-0.4,0.1-0.6l0-5.4c0-0.4-0.2-0.5-0.6-0.4
				c-0.3,0.1-6.3,1.3-6.3,1.3c-0.3,0-0.5,0.3-0.5,0.5c0,0,0,0.1,0,0.1l0,7.9c0,0.3,0,0.6-0.1,0.9c-0.1,0.3-0.2,0.6-0.4,0.8
				c-0.2,0.3-0.4,0.5-0.7,0.6c-0.3,0.2-0.5,0.3-0.8,0.3c-0.4,0.1-0.9,0.1-1.3,0.1c-0.3-0.1-0.6-0.2-0.9-0.5
				c-0.8-0.7-0.8-1.9-0.1-2.7c0.2-0.2,0.5-0.4,0.8-0.5c0.4-0.2,0.9-0.3,1.3-0.3c0.2,0,0.3-0.1,0.5-0.1c0.2,0,0.4-0.1,0.5-0.3
				c0.1-0.2,0.2-0.4,0.2-0.6v-9c0-0.1,0-0.2,0-0.2c0-0.2,0.1-0.3,0.2-0.5c0.1-0.1,0.3-0.2,0.5-0.2l0,0l7.2-1.5
				c0.1,0,0.6-0.1,0.6-0.1c0.3,0,0.6,0.2,0.6,0.5c0,0.1,0,0.1,0,0.2l0,11.5C102.8,33.2,102.8,33.5,102.8,33.8L102.8,33.8z"/>
		</g>
		<g>
			<path class="st1" d="M118.5,24.3h-3.7v-5.9h0.9v5h2.7L118.5,24.3L118.5,24.3z"/>
			<path class="st1" d="M119.6,18.6c0-0.3,0.2-0.6,0.5-0.6c0.3,0,0.6,0.2,0.6,0.5c0,0.3-0.2,0.6-0.5,0.6c0,0,0,0,0,0
				C119.8,19.2,119.6,18.9,119.6,18.6C119.6,18.6,119.6,18.6,119.6,18.6z M119.7,19.9h0.9v4.4h-0.9V19.9z"/>
			<path class="st1" d="M123.6,19.8c0.8-0.1,1.6,0.4,1.7,1.2h-0.8c-0.1-0.4-0.5-0.6-0.9-0.5c-0.4-0.1-0.8,0.2-0.9,0.6
				c0,0.3,0.2,0.4,0.7,0.5l0.7,0.2c0.7,0,1.2,0.5,1.2,1.2c-0.1,0.9-0.9,1.5-1.8,1.4c0,0-0.1,0-0.1,0c-0.8,0.2-1.7-0.4-1.8-1.3h0.9
				c0.2,0.4,0.6,0.6,1,0.6c0.4,0.1,0.8-0.2,0.9-0.6c-0.1-0.3-0.3-0.5-0.6-0.5l-0.8-0.2c-0.7,0-1.2-0.6-1.2-1.2
				C121.9,20.3,122.7,19.7,123.6,19.8C123.5,19.8,123.6,19.8,123.6,19.8z"/>
			<path class="st1" d="M127.7,18.8v1.1h1v0.7h-1V23c-0.1,0.3,0.1,0.6,0.4,0.7c0.1,0,0.1,0,0.2,0c0.1,0,0.2,0,0.3,0v0.7
				c-0.2,0-0.3,0-0.5,0c-1,0-1.4-0.3-1.4-1.2v-2.5h-0.7v-0.7h0.7v-1.1H127.7z"/>
			<path class="st1" d="M133.5,23.1c-0.2,0.8-1.1,1.4-1.9,1.3c-1.1,0-2-0.8-2.1-2c0-0.1,0-0.2,0-0.3c-0.1-1.1,0.6-2.1,1.7-2.3
				c0.1,0,0.2,0,0.3,0c1.1,0,2,0.8,2,1.9c0,0.1,0,0.2,0,0.3v0.3h-3.1v0c-0.1,0.6,0.4,1.2,1.1,1.3c0,0,0.1,0,0.1,0
				c0.4,0.1,0.8-0.2,1.1-0.5H133.5z M130.4,21.7h2.2c0-0.6-0.4-1.1-1-1.1c0,0-0.1,0-0.1,0C131,20.6,130.4,21.1,130.4,21.7
				C130.4,21.7,130.4,21.7,130.4,21.7z"/>
			<path class="st1" d="M134.7,19.9h0.8v0.7h0.1c0.2-0.5,0.8-0.8,1.3-0.8c0.8-0.1,1.5,0.5,1.5,1.3c0,0.1,0,0.2,0,0.3v2.9h-0.9v-2.6
				c0.1-0.5-0.2-1-0.7-1c-0.1,0-0.2,0-0.3,0c-0.6,0-1,0.4-1.1,1c0,0.1,0,0.1,0,0.2v2.6h-0.9V19.9z"/>
			<path class="st1" d="M142,22.1c-0.1-1.2,0.7-2.2,1.9-2.3c1.2-0.1,2.2,0.7,2.3,1.9c0,0.1,0,0.3,0,0.4c0.1,1.2-0.7,2.2-1.9,2.3
				c-1.2,0.1-2.2-0.7-2.3-1.9C142,22.4,142,22.3,142,22.1z M145.3,22.1c0-1-0.4-1.5-1.2-1.5c-0.8,0-1.2,0.6-1.2,1.5
				c0,1,0.4,1.5,1.2,1.5C144.8,23.7,145.3,23.1,145.3,22.1z"/>
			<path class="st1" d="M147.3,19.9h0.8v0.7h0.1c0.2-0.5,0.8-0.8,1.3-0.8c0.8-0.1,1.5,0.5,1.5,1.3c0,0.1,0,0.2,0,0.3v2.9h-0.9v-2.6
				c0.1-0.5-0.2-1-0.7-1c-0.1,0-0.2,0-0.3,0c-0.6,0-1,0.4-1.1,1c0,0.1,0,0.1,0,0.2v2.6h-0.9V19.9z"/>
		</g>
	</g>
</g>
</svg>
