<?xml version="1.0" encoding="utf-8"?>
<!-- Generator: Adobe Illustrator 19.1.0, SVG Export Plug-In . SVG Version: 6.00 Build 0)  -->
<svg version="1.1" id="Layer_1" xmlns="http://www.w3.org/2000/svg" xmlns:xlink="http://www.w3.org/1999/xlink" x="0px" y="0px"
	 viewBox="0 0 290 60" style="enable-background:new 0 0 290 60;" xml:space="preserve">
<style type="text/css">
	.st0{fill:#222222;}
	.st1{fill:#EADFCF;}
</style>
<g>
	<path class="st0" d="M260.8,57.5H29.2C14.1,57.5,1.8,45.2,1.8,30v0c0-15.2,12.3-27.5,27.5-27.5h231.5c15.2,0,27.5,12.3,27.5,27.5v0
		C288.3,45.2,275.9,57.5,260.8,57.5z"/>
	<g>
		<path class="st1" d="M152.4,37.2h-9.9V25.2h9.9v3.3h-5.3v1.4h4.9v2.7h-4.9V34h5.3V37.2z M163.5,37.2h-9.9V25.2h9.9v3.3h-5.3v1.4
			h4.9v2.7h-4.9V34h5.3V37.2z M199.6,37.2c-0.7-1.8-1.6-3.8-2.9-6c1.5-0.4,2.4-1.4,2.4-2.8c0-2.2-2-3.2-5.2-3.2h-6.6v12.1h4.7v-5
			c1,1.8,1.8,3.4,2.3,5H199.6z M192,30.6v-2.1h1.6c0.7,0,1.1,0.4,1.1,1.1s-0.4,1.1-1.1,1.1H192z M186.1,37.2h-9.9V25.2h9.9v3.3h-5.3
			v1.4h4.9v2.7h-4.9V34h5.3V37.2z M164.6,28.4h4.9c-2,1.6-3.7,3.5-4.9,5.6v3.3h10.7V34h-5.3c1.2-1.8,2.9-3.6,5.3-5.6v-3.3h-10.6
			V28.4z M129.3,25.2h6.1c3.7,0,6.4,2.5,6.4,6c0,3.5-2.7,6-6.4,6h-6.1V25.2z M134,34h1.1c1.2,0,1.8-0.8,1.8-2.8c0-2-0.6-2.8-1.8-2.8
			H134V34z"/>
		<path class="st1" d="M116.1,22.4c0.3-1.6,0.7-2.7,1.2-2.7h0c0.9,0,1.6,3.6,1.6,8c0,4.4-0.7,8-1.6,8c-0.4,0-0.7-0.6-0.9-1.6
			c-0.4,3.7-1.3,6.3-2.3,6.3c-0.8,0-1.5-1.5-1.9-4c-0.3,4.6-1.1,7.9-2,7.9c-0.6,0-1.1-1.3-1.5-3.4c-0.5,4.4-1.6,7.4-2.8,7.4
			c-1.3,0-2.4-3.1-2.8-7.4c-0.4,2.1-0.9,3.4-1.5,3.4c-0.9,0-1.7-3.3-2-7.9c-0.5,2.4-1.2,4-1.9,4c-1,0-1.9-2.6-2.3-6.3
			c-0.3,1-0.6,1.6-0.9,1.6c-0.9,0-1.6-3.6-1.6-8c0-4.4,0.7-8,1.6-8c0.5,0,0.9,1,1.2,2.7c0.5-2.8,1.2-4.7,2-4.7c1,0,1.9,2.6,2.3,6.4
			c0.4-2.7,1-4.5,1.7-4.5c1,0,1.8,3.4,2.1,8.2c0.6-2.5,1.4-4,2.3-4s1.7,1.5,2.3,4c0.3-4.8,1.1-8.2,2.1-8.2c0.7,0,1.3,1.8,1.7,4.5
			c0.4-3.8,1.3-6.4,2.3-6.4C114.9,17.7,115.6,19.5,116.1,22.4z M90.4,26.9c0-2,0.4-3.6,0.9-3.6s0.9,1.6,0.9,3.6c0,2-0.4,3.6-0.9,3.6
			S90.4,28.9,90.4,26.9z M119.2,26.9c0-2,0.4-3.6,0.9-3.6s0.9,1.6,0.9,3.6c0,2-0.4,3.6-0.9,3.6S119.2,28.9,119.2,26.9z"/>
	</g>
</g>
</svg>
