<?xml version="1.0" encoding="utf-8"?>
<!-- Generator: Adobe Illustrator 19.1.0, SVG Export Plug-In . SVG Version: 6.00 Build 0)  -->
<svg version="1.1" id="Layer_1" xmlns="http://www.w3.org/2000/svg" xmlns:xlink="http://www.w3.org/1999/xlink" x="0px" y="0px"
	 viewBox="0 0 285 55" style="enable-background:new 0 0 285 55;" xml:space="preserve">
<style type="text/css">
	.st0{fill:#58767C;}
	.st1{fill:#EADFCF;}
</style>
<path class="st0" d="M257.5,55h-230C12.3,55,0,42.7,0,27.5v0C0,12.3,12.3,0,27.5,0l230,0C272.7,0,285,12.3,285,27.5v0
	C285,42.7,272.7,55,257.5,55z"/>
<g>
	<path class="st1" d="M153,35.8h-12.4V20.7H153v4.1h-6.6v1.7h6.2v3.3h-6.2v1.9h6.6V35.8z M166.9,35.8h-12.4V20.7h12.4v4.1h-6.6v1.7
		h6.2v3.3h-6.2v1.9h6.6V35.8z M212,35.8c-0.8-2.3-2-4.8-3.6-7.5c1.9-0.5,3-1.7,3-3.5c0-2.7-2.5-4-6.5-4h-8.2v15.1h5.9v-6.2
		c1.3,2.2,2.3,4.3,2.9,6.2H212z M202.5,27.4v-2.7h2c0.9,0,1.4,0.5,1.4,1.3s-0.5,1.3-1.4,1.3H202.5z M195.2,35.8h-12.4V20.7h12.4v4.1
		h-6.6v1.7h6.2v3.3h-6.2v1.9h6.6V35.8z M168.3,24.8h6.1c-2.5,2.1-4.6,4.4-6.2,6.9v4.1h13.4v-4.1h-6.7c1.5-2.2,3.7-4.4,6.7-6.9v-4.1
		h-13.2V24.8z M124.1,20.7h7.6c4.7,0,8,3.1,8,7.5c0,4.4-3.3,7.5-8,7.5h-7.6V20.7z M130,31.7h1.4c1.5,0,2.3-1,2.3-3.5
		c0-2.5-0.8-3.5-2.3-3.5H130V31.7z"/>
	<path class="st1" d="M107.6,17.2c0.4-2.1,0.9-3.3,1.4-3.3h0c1.1,0,1.9,4.5,1.9,10c0,5.5-0.9,10-1.9,10c-0.4,0-0.8-0.8-1.2-2
		c-0.5,4.7-1.6,7.9-2.8,7.9c-1,0-1.8-1.9-2.4-5c-0.4,5.8-1.4,9.9-2.6,9.9c-0.7,0-1.4-1.6-1.9-4.3c-0.6,5.5-2,9.3-3.6,9.3
		c-1.6,0-3-3.8-3.6-9.3c-0.5,2.6-1.2,4.3-1.9,4.3c-1.2,0-2.2-4.1-2.6-9.9c-0.6,3-1.4,5-2.4,5c-1.2,0-2.3-3.2-2.8-7.9
		c-0.3,1.3-0.7,2-1.2,2c-1.1,0-1.9-4.5-1.9-10c0-5.5,0.9-10,1.9-10c0.6,0,1.1,1.3,1.4,3.3c0.6-3.5,1.5-5.8,2.6-5.8
		c1.2,0,2.3,3.2,2.8,8c0.5-3.4,1.3-5.6,2.1-5.6c1.2,0,2.2,4.3,2.6,10.3c0.7-3.1,1.7-5,2.9-5s2.2,1.9,2.9,5c0.4-6,1.4-10.3,2.6-10.3
		c0.8,0,1.6,2.2,2.1,5.6c0.5-4.7,1.6-8,2.8-8C106.1,11.4,107,13.7,107.6,17.2z M75.5,22.9c0-2.5,0.5-4.5,1.1-4.5
		c0.6,0,1.1,2,1.1,4.5c0,2.5-0.5,4.5-1.1,4.5C76,27.4,75.5,25.4,75.5,22.9z M111.5,22.9c0-2.5,0.5-4.5,1.1-4.5c0.6,0,1.1,2,1.1,4.5
		c0,2.5-0.5,4.5-1.1,4.5C112,27.4,111.5,25.4,111.5,22.9z"/>
</g>
</svg>
