<?xml version="1.0" encoding="utf-8"?>
<!-- Generator: Adobe Illustrator 19.1.0, SVG Export Plug-In . SVG Version: 6.00 Build 0)  -->
<svg version="1.1" id="Layer_1" xmlns="http://www.w3.org/2000/svg" xmlns:xlink="http://www.w3.org/1999/xlink" x="0px" y="0px"
	 viewBox="0 0 1776.2 117.6" style="enable-background:new 0 0 1776.2 117.6;" xml:space="preserve">
<style type="text/css">
	.st0{opacity:0.2;}
	.st1{fill:#17130C;}
</style>
<g class="st0">
	<path class="st1" d="M12.8,63.4L44.4,63l0.2,11.3l-31.7,0.4l0.3,25.5l37.8-0.5l0.2,11.3l-50.1,0.7L0,30.4l48.7-0.6L48.8,41
		l-36.3,0.5L12.8,63.4z"/>
	<path class="st1" d="M84.6,90.5l0-2.5l12.4-0.2c0.2,7.7,5.7,12.3,13.4,12.2c7-0.1,13.4-3.5,13.3-11.5c-0.1-8.9-9.4-12.2-18.7-16.4
		c-9.3-4.3-18.7-9.3-18.9-21.5c-0.2-14,11.3-22.7,24.8-22.9c11.2-0.1,23.6,7.5,23.8,19.7l0,1.6l-12.4,0.2
		c0.4-6.8-5.1-10.2-11.5-10.2c-6.5,0.1-12.4,2.7-12.3,10.4c0.1,5.9,4.8,8.9,9.5,11l7.2,3.3c11.1,5,20.7,10.8,20.8,24.5
		c0.2,14.3-12,22.8-25.5,23C98.2,111.5,84.8,104,84.6,90.5z"/>
	<path class="st1" d="M203,109l-12.4,0.2l-0.9-70l-21.9,0.3l-0.2-11.3l56.2-0.8l0.2,11.3L202.1,39L203,109z"/>
	<path class="st1" d="M271.2,108.1l-12.4,0.2l-1.1-81.3l23.6-0.3C296.3,26.4,307.8,34,308,50c0.1,10.2-5.4,19.5-15.9,21.6l21.7,35.9
		l-14.1,0.2l-19-33.4l-9.8,0.1L271.2,108.1z M279.7,63c10-0.1,16-2.6,15.9-13.3c-0.1-10.7-7.6-11.9-16.3-11.8l-9,0.1l0.3,25.1
		L279.7,63z"/>
	<path class="st1" d="M358.1,58.8l31.7-0.4l0.2,11.3l-31.7,0.4l0.3,25.5l37.8-0.5l0.2,11.3l-50.1,0.7l-1.1-81.3l48.7-0.6l0.2,11.3
		l-36.3,0.5L358.1,58.8z"/>
	<path class="st1" d="M486.3,93.9l0.2,11.3l-54,0.7l-1.1-81.3l12.4-0.2l0.9,70L486.3,93.9z"/>
	<path class="st1" d="M572.6,92.8l0.2,11.3l-54,0.7l-1.1-81.3l12.4-0.2l0.9,70L572.6,92.8z"/>
	<path class="st1" d="M634.5,92l14.6-0.2l0.2,11.3l-41.6,0.6l-0.2-11.3l14.6-0.2l-0.8-58.8l-12.2,0.2L609,22.3l36.7-0.5l0.2,11.3
		l-12.1,0.2L634.5,92z"/>
	<path class="st1" d="M721,102.1l-12.4,0.2l-0.9-70l-21.9,0.3l-0.2-11.3l56.2-0.8l0.2,11.3l-21.9,0.3L721,102.1z"/>
	<path class="st1" d="M789,77.8l-5.4,23.5l-12.5,0.2l21.1-81.6l15.7-0.2l23.3,81l-12.5,0.2l-6.2-23.3L789,77.8z M800.4,31.1l-0.2,0
		l-8.4,35.4l17.9-0.2L800.4,31.1z"/>
	<path class="st1" d="M861.6,80.2l0-2.5l12.4-0.2c0.2,7.7,5.7,12.3,13.4,12.2c7-0.1,13.4-3.5,13.3-11.5c-0.1-8.9-9.4-12.2-18.7-16.4
		c-9.3-4.3-18.7-9.3-18.9-21.5c-0.2-14,11.3-22.7,24.8-22.9c11.2-0.1,23.6,7.5,23.8,19.7l0,1.6l-12.4,0.2
		c0.4-6.8-5.1-10.2-11.5-10.2c-6.5,0.1-12.4,2.7-12.3,10.4c0.1,5.9,4.8,8.9,9.5,11l7.2,3.3c11.1,5,20.7,10.8,20.8,24.5
		c0.2,14.3-12,22.8-25.5,23C875.2,101.1,861.8,93.6,861.6,80.2z"/>
	<path class="st1" d="M1074.8,16l13.5-0.2l-22.4,43.6l0.5,38l-12.4,0.2l-0.5-38l-23.7-43l13.5-0.2l16.1,30.4L1074.8,16z"/>
	<path class="st1" d="M1208.4,14.3l7.7-0.1c24.2-0.3,42.8,17.2,43.1,41.8c0.3,24.7-16.7,39.2-40.5,39.5l-9.2,0.1L1208.4,14.3z
		 M1221.7,84.1c16.3,0.1,25.4-12.9,25.2-28.3c-0.2-14.6-10.4-30-26-30.5L1221.7,84.1z"/>
	<path class="st1" d="M1303,13l0.7,53.2c0.2,11.4,3,17.8,15.3,17.7s15-6.7,14.9-18.1l-0.7-53.2l12.3-0.2l0.7,54.1
		c0.2,17.6-8.1,28.4-27.1,28.7c-19.1,0.3-27.6-10.3-27.8-27.9l-0.7-54.1L1303,13z"/>
	<path class="st1" d="M1394.1,45l31.7-0.4l0.2,11.3l-31.7,0.4l0.3,25.5l37.8-0.5l0.2,11.3l-50.1,0.7l-1.1-81.3l48.7-0.6l0.2,11.3
		l-36.3,0.5L1394.1,45z"/>
	<path class="st1" d="M1506.5,10.3l11.3-0.2l1.1,81.3l-13.4,0.2l-29.8-61.1l-0.2,0l0.8,61.5l-11.3,0.2l-1.1-81.3l14.4-0.2l28.8,58.6
		l0.2,0L1506.5,10.3z"/>
	<path class="st1" d="M1553.7,9.7l7.7-0.1c24.2-0.3,42.8,17.2,43.1,41.8c0.3,24.7-16.7,39.2-40.5,39.5l-9.2,0.1L1553.7,9.7z
		 M1567,79.5c16.3,0.1,25.4-12.9,25.2-28.3c-0.2-14.6-10.4-30-26-30.5L1567,79.5z"/>
	<path class="st1" d="M1653.1,41.6l31.7-0.4l0.2,11.3l-31.7,0.4l0.3,25.5l37.8-0.5l0.2,11.3l-50.1,0.7l-1.1-81.3l48.7-0.6l0.2,11.3
		l-36.3,0.5L1653.1,41.6z"/>
	<path class="st1" d="M1724.9,68.7l0-2.5l12.4-0.2c0.2,7.7,5.7,12.3,13.4,12.2c7-0.1,13.4-3.5,13.3-11.5
		c-0.1-8.9-9.4-12.2-18.7-16.4c-9.3-4.3-18.7-9.3-18.9-21.5c-0.2-14,11.3-22.7,24.8-22.9c11.2-0.1,23.6,7.5,23.8,19.7l0,1.6
		l-12.4,0.2c0.4-6.8-5.1-10.2-11.5-10.2s-12.4,2.7-12.3,10.4c0.1,5.9,4.8,8.9,9.5,11l7.2,3.3c11.1,5,20.7,10.8,20.8,24.5
		c0.2,14.3-12,22.8-25.5,23C1738.5,89.6,1725.1,82.1,1724.9,68.7z"/>
</g>
</svg>
