<svg xmlns="http://www.w3.org/2000/svg" viewBox="0 0 512 512">
  <path fill="#ffffff" d="M443.7,47.4c45.1,17.3,60.5,51.4,57.5,97.2c-0.7,11.4-4.7,14-14.9,14.6c-27.9,1.5-27.9,1.9-28-25.7
  c-0.1-29.9-13.6-46.6-38-46.9c-26.4-0.4-45.7,19.2-45.8,47.5c-0.2,66.2-0.1,132.5,0,198.8c0,26.1,13.5,42.5,35.5,43.8
  c23.8,1.4,46.4-16.3,47.8-40c1.6-26.4,0.5-53,0.5-79.5c0-13.6-10.2-6.1-15.9-7.1c-7.2-1.2-19.5,5.1-16.3-10.2
  c2.3-10.8-11.4-29.8,14.8-29.9c16.3,0,32.7-1.9,48.9-3.6c8.7-0.9,11.7,1.7,11.6,10.7c-0.4,38.6,0.9,77.2-0.5,115.6
  c-2,56.3-56.7,97.4-109.5,83.7c-33.6-8.7-56-37.9-56.2-75.2c-0.4-68.1-0.4-136.1,0-204.2c0.2-38.4,23.5-70.9,59.3-85.2
  c3.1-1.2,7.5-0.3,9-4.7L443.7,47.4z M10.3,448.8c1.8-18.5,13.7-22.9,30.4-25.4c26.7-4,38.9-20.5,39-50.1
  c0.4-89.7,0.1-179.4,0.5-269.1c0-5.8-4.6-14.8,4.4-17.1c10.4-2.7,21.6-3.3,32.4-3.4c3.9,0,2.7,5.9,2.7,9.2
  c0,96.3,0.9,192.6-0.6,288.9c-0.8,52.7-54,90.8-108.8,81.4V448.8z M192.6,258.8c0-57.3,0.2-114.5-0.1-171.8
  c-0.1-25.7,20.7-13.8,31.8-16.9c14.4-4,8.2,10,8.2,15.6c0.5,98.2,0.9,196.5-0.2,294.7c-0.2,18.2,6.3,19.3,20.6,17.1
  c17.9-2.8,36.2-4,54.1-6.5c10.1-1.4,14.7,1.2,13.2,12c-0.7,5.3-0.4,10.9-0.1,16.2c0.4,7-1.2,10.6-9.6,11.4
  c-36.2,3.8-72.3,8-108.3,13c-13.8,1.9-9.6-7.3-9.6-13.3C192.5,373.2,192.5,316,192.6,258.8z"/>
</svg>
