<?xml version="1.0" encoding="utf-8"?>
<!-- Generator: Adobe Illustrator 19.1.0, SVG Export Plug-In . SVG Version: 6.00 Build 0)  -->
<svg version="1.1" id="Layer_1" xmlns="http://www.w3.org/2000/svg" xmlns:xlink="http://www.w3.org/1999/xlink" x="0px" y="0px"
	 viewBox="0 0 1080 1920" style="enable-background:new 0 0 1080 1920;" xml:space="preserve">
<style type="text/css">
	.st0{clip-path:url(#SVGID_2_);}
	.st1{opacity:0.2;}
	.st2{fill:#557179;}
</style>
<g>
	<defs>
		<rect id="SVGID_1_" width="1080" height="1920"/>
	</defs>
	<clipPath id="SVGID_2_">
		<use xlink:href="#SVGID_1_"  style="overflow:visible;"/>
	</clipPath>
	<g class="st0">
		<g class="st1">
			<g>
				<path class="st2" d="M90,143.9v11c0,29.1,12,73.3,22.4,95.7h3.7v5.5H23.7v-5.5h4.9c4.9-10.7,22.1-53.4,22.1-116.6
					c0-57.1-19-98.2-21.5-102.5h-4.3v-5.5h89.3v5.5h-3.1C99.5,52.2,90,101.3,90,122.8v14.4h52.8v-14.4c0-21.5-9.8-70.6-21.2-91.1
					h-3.7v-5.5h93.3v5.5H206C199.2,45.4,182,78.9,182,134.1c0,57.1,18.4,106.5,22.1,116.6h4.3v5.5h-89.3v-5.5h3.1
					c11.4-22.4,20.6-66.6,20.6-95.7v-11H90z"/>
				<path class="st2" d="M360.9,250.7v5.5h-87.4v-5.5h5.5c6.4-10.1,8.9-37.1,8.9-44.2c0-6.7,0-9.2-1.2-17.5h-31.9
					c-1.2,5.8-1.2,12.6-1.2,16.9c0,12.6,3.4,34.1,8.9,44.8h5.5v5.5h-55.8v-5.5h5.5C244.3,215.4,263,109.3,286,26.1h12.3
					c8,62.6,26.7,166.3,57.7,224.6H360.9z M286,182.3c-0.6-12.9-10.7-59.5-14.1-75.5h-0.6c-4,15.3-14.4,63.8-15.6,75.5H286z"/>
				<path class="st2" d="M497.4,31.6c-29.8,43-45.7,91.7-55.2,118.4c0,56.5,15.6,89.9,20.6,100.6h5.5v5.5h-95.4v-5.5h6.1
					c6.8-15.6,21.2-41.1,21.2-97c-6.7-43.9-34.7-97.9-48.5-122.1h-6.1v-5.5h94.2v5.5h-7.1c-4,10.1-6.4,30.4-6.4,37.1
					c0,21.2,6.1,43,15.3,66c10.1-25.5,12.6-59.5,12.6-67.2c0-9.8-1.2-25.8-4.9-35.9h-5.8v-5.5h58.9v5.5H497.4z"/>
				<path class="st2" d="M738.6,212c4.6,0,9.5-1.5,11.4-3.1c0.6-0.3,0.9,0,0.9,0.6c0,19.3-4.6,49.7-26.7,49.7
					c-14.1,0-20.6-8-27.9-13.5c-13.5,9.2-27.3,11.7-35.3,11.7c-20.6,0-74.6-13.5-74.6-116.6c0-102.5,54.3-116,74.6-116
					c20.2,0,73.6,13.5,73.6,116c0,24.9-4.3,54-9.2,63.8C727.8,207.8,733.4,212,738.6,212z M680.9,140.9c0-83.8-1.5-110.5-19.9-110.5
					c-19.3,0-20.9,26.7-20.9,110.5c0,23,0.3,52.8,0.6,67.5h0.6c4-8.6,18.4-27.9,39.6-24.9V140.9z M660.9,251.9
					c13.8,0,16.6-12.6,18.4-37.7c-5.5-7.1-11.7-11.4-19-11.4c-10.1,0-18.1,18.1-18.1,27.3C643.5,244,651.1,251.9,660.9,251.9z"/>
				<path class="st2" d="M862.8,126.4c0-25.2-10.4-74.9-18.4-94.8H838v-5.5h58.9v5.5H892c-16,35.3-21.5,77.6-21.5,94.8v68.4
					c0,18.7-1.8,62.6-40.5,62.6c-16,0-62.6-1.8-62.6-58.9V116c0-30.4-8.6-62.6-19.9-84.4h-6.1v-5.5h91.7v5.5h-4.9
					c-14.7,22.4-16.6,102.5-16.6,114.7c0,81.9,1.2,102.5,25.8,102.5c16.3,0,25.5-17.5,25.5-54V126.4z"/>
				<path class="st2" d="M968.7,143.3v19.3c0,78.5,14.1,89.3,19.9,89.3c4,0,9.2-5.5,9.2-15.3c0-26.1,7.4-61.1,41.1-69.6
					c1.2-0.3,2.1,0.6,1.8,1.2c-7.1,14.4-5.5,25.5-5.5,34.1c0,17.2,4.6,42.3,9.8,52.8c0.3,0.6,0.6,1.2-0.6,1.2H902.4v-5.5h4.3
					c4.9-10.7,21.2-49.7,21.2-112.9c0-55.2-17.5-96.6-21.2-106.2h-4.3v-5.5h135.9c1.2,0,1.5,0.6,1.2,1.8c-4,14.7-6.7,34.1-6.7,43.6
					c0,9.2,1.5,30.4,7.4,42c0.6,1.2,0,1.8-1.2,1.5c-45.1-11.4-45.4-52.5-45.4-66.6c0-8.3-1.2-16.9-7.4-16.9
					c-13.5,0-17.5,50.3-17.5,89.3v15.6h5.8c10.7,0,18.1-7.4,18.1-21.5c0-6.4-2.1-12-5.8-19c-0.3-0.6-0.6-1.2,0-1.8l2.5-1.8
					c0.9-0.6,1.5-0.6,1.8,0c4.9,6.1,19.9,21.8,19.9,46c0,24.9-10.7,39.3-18.7,47.2c-0.6,0.6-1.2,1.2-1.8,0.6l-3.1-2.8
					c-0.9-0.9-0.6-1.2,0.9-3.1c6.1-8,5.2-21.5,2.5-27c-3.4-7.4-10.4-10.1-16.3-10.1H968.7z"/>
				<path class="st2" d="M121.7,279.5c-4.2,13.7-7,29.8-7,49.7c0,24.5,12.6,91,18.6,114.5h0.7c8.4-51.5,13.3-90,13.3-120.1
					c0-17.2-1.4-31.2-4.9-44.1h-6.7v-6.3h61.6v6.3h-5.6c-31.2,46.9-60.9,211.8-70,256.2h-15.1c-9.8-72.1-36.1-189-69.3-256.2H26.2
					v-6.3h104v6.3H121.7z"/>
				<path class="st2" d="M278.2,537.1c-23.5,0-85.1-15.4-85.1-133c0-116.2,62.3-132.3,85.1-132.3c22.8,0,84,16.1,84,132.3
					C362.2,521.7,300.9,537.1,278.2,537.1z M278.2,278.1c-22.1,0-23.8,31.2-23.8,126.7c0,94.9,1.8,126,23.8,126
					c21,0,22.8-31.2,22.8-126C300.9,309.2,299.2,278.1,278.2,278.1z"/>
				<path class="st2" d="M374.1,535.7v-6.3h4.9c7.7-15.1,24.9-57.4,24.9-129.5c0-64.4-22.1-115.5-24.9-120.4h-4.9v-6.3h106.8v6.3
					h-4.9c-2.8,4.9-24.9,56-24.9,120.4c0,38.2,0.4,129.5,23.1,129.5c10.5,0,11.9-25.9,11.9-38.2c0-34.3,30.8-58.1,50.8-58.1
					c1.4,0,1.4,0.7,1.1,1.4c-6.3,12.6-7.4,32.6-7.4,41c0,13,1.8,48.7,10.5,58.8c0.7,0.7,0.7,1.4,0,1.4H374.1z"/>
				<path class="st2" d="M604.4,279.5c-4.2,13.7-7,29.8-7,49.7c0,24.5,12.6,91,18.6,114.5h0.7c8.4-51.5,13.3-90,13.3-120.1
					c0-17.2-1.4-31.2-4.9-44.1h-6.7v-6.3H680v6.3h-5.6c-31.2,46.9-60.9,211.8-70,256.2h-15.1c-9.8-72.1-36.1-189-69.3-256.2h-11.2
					v-6.3h104v6.3H604.4z"/>
				<path class="st2" d="M759.1,406.9v22.1c0,89.6,16.1,101.9,22.8,101.9c4.5,0,10.5-6.3,10.5-17.5c0-29.8,8.4-69.7,46.9-79.5
					c1.4-0.4,2.5,0.7,2.1,1.4c-8.1,16.4-6.3,29.1-6.3,38.9c0,19.6,5.3,48.3,11.2,60.2c0.4,0.7,0.7,1.4-0.7,1.4H683.5v-6.3h4.9
					c5.6-12.3,24.2-56.7,24.2-128.8c0-63-20-110.3-24.2-121.1h-4.9v-6.3h155.1c1.4,0,1.8,0.7,1.4,2.1c-4.5,16.8-7.7,38.9-7.7,49.7
					c0,10.5,1.8,34.7,8.4,48c0.7,1.4,0,2.1-1.4,1.8c-51.5-13-51.8-59.9-51.8-76c0-9.5-1.4-19.3-8.4-19.3c-15.4,0-20,57.4-20,101.9
					v17.9h6.7c12.3,0,20.7-8.4,20.7-24.5c0-7.4-2.5-13.7-6.7-21.7c-0.3-0.7-0.7-1.4,0-2.1l2.8-2.1c1-0.7,1.8-0.7,2.1,0
					c5.6,7,22.8,24.9,22.8,52.5c0,28.4-12.3,44.8-21.4,53.9c-0.7,0.7-1.4,1.4-2.1,0.7l-3.5-3.2c-1-1.1-0.7-1.4,1.1-3.5
					c7-9.1,6-24.5,2.8-30.8c-3.9-8.4-11.9-11.6-18.6-11.6H759.1z"/>
				<path class="st2" d="M936.6,426.1c0,55.7,18.6,92.4,24.2,103.3h7.7v6.3H865.2v-6.3h4.9c7-15.8,20-59.5,20-133.7
					c0-68.6-15-105.4-20-116.2h-4.9v-6.3h112c20.3,0,60.6,7,60.6,66.5c0,35.4-17.5,57.4-50.8,64.8v0.7c36.8,11.5,49.4,27.3,49.4,91
					c0,11.2,0.7,19.6,7.3,19.6c3.5,0,7.7-2.8,8.4-7.7c0,0,0-0.7,0.7-0.7h2.8c0.7,0,0.7,0.7,0.7,1.4c0,5.3-2.1,28.4-38.9,28.4
					c-31.9,0-40.3-22.1-40.3-41.7c0-10.9,4.2-22.1,4.2-42c0-20.3-3.5-44.5-29.8-44.5h-15.1V426.1z M945.3,402
					c30.1,0,34.7-26.3,34.7-63c0-28.4-3.9-59.5-22.8-59.5c-20.3,0-20.7,80.2-20.7,104.7V402H945.3z"/>
			</g>
		</g>
		<g class="st1">
			<g>
				<path class="st2" d="M90,711.2v11c0,29.1,12,73.3,22.4,95.7h3.7v5.5H23.7V818h4.9c4.9-10.7,22.1-53.4,22.1-116.6
					c0-57.1-19-98.2-21.5-102.5h-4.3v-5.5h89.3v5.5h-3.1C99.5,619.5,90,668.5,90,690v14.4h52.8V690c0-21.5-9.8-70.6-21.2-91.1h-3.7
					v-5.5h93.3v5.5H206c-6.8,13.8-23.9,47.2-23.9,102.5c0,57.1,18.4,106.5,22.1,116.6h4.3v5.5h-89.3V818h3.1
					c11.4-22.4,20.6-66.6,20.6-95.7v-11H90z"/>
				<path class="st2" d="M360.9,818v5.5h-87.4V818h5.5c6.4-10.1,8.9-37.1,8.9-44.2c0-6.7,0-9.2-1.2-17.5h-31.9
					c-1.2,5.8-1.2,12.6-1.2,16.9c0,12.6,3.4,34.1,8.9,44.8h5.5v5.5h-55.8V818h5.5c26.7-35.3,45.4-141.4,68.4-224.6h12.3
					C306.3,656,325,759.7,356,818H360.9z M286,749.6c-0.6-12.9-10.7-59.5-14.1-75.5h-0.6c-4,15.3-14.4,63.8-15.6,75.5H286z"/>
				<path class="st2" d="M497.4,598.9c-29.8,43-45.7,91.7-55.2,118.4c0,56.5,15.6,89.9,20.6,100.6h5.5v5.5h-95.4V818h6.1
					c6.8-15.6,21.2-41.1,21.2-97c-6.7-43.9-34.7-97.9-48.5-122.1h-6.1v-5.5h94.2v5.5h-7.1c-4,10.1-6.4,30.4-6.4,37.1
					c0,21.2,6.1,43,15.3,66c10.1-25.5,12.6-59.5,12.6-67.2c0-9.8-1.2-25.8-4.9-35.9h-5.8v-5.5h58.9v5.5H497.4z"/>
				<path class="st2" d="M738.6,779.3c4.6,0,9.5-1.5,11.4-3.1c0.6-0.3,0.9,0,0.9,0.6c0,19.3-4.6,49.7-26.7,49.7
					c-14.1,0-20.6-8-27.9-13.5c-13.5,9.2-27.3,11.7-35.3,11.7c-20.6,0-74.6-13.5-74.6-116.6c0-102.5,54.3-116,74.6-116
					c20.2,0,73.6,13.5,73.6,116c0,24.9-4.3,54-9.2,63.8C727.8,775,733.4,779.3,738.6,779.3z M680.9,708.1
					c0-83.8-1.5-110.5-19.9-110.5c-19.3,0-20.9,26.7-20.9,110.5c0,23,0.3,52.8,0.6,67.5h0.6c4-8.6,18.4-27.9,39.6-24.9V708.1z
					 M660.9,819.2c13.8,0,16.6-12.6,18.4-37.7c-5.5-7.1-11.7-11.4-19-11.4c-10.1,0-18.1,18.1-18.1,27.3
					C643.5,811.2,651.1,819.2,660.9,819.2z"/>
				<path class="st2" d="M862.8,693.7c0-25.2-10.4-74.9-18.4-94.8H838v-5.5h58.9v5.5H892c-16,35.3-21.5,77.6-21.5,94.8v68.4
					c0,18.7-1.8,62.6-40.5,62.6c-16,0-62.6-1.8-62.6-58.9v-82.5c0-30.4-8.6-62.6-19.9-84.4h-6.1v-5.5h91.7v5.5h-4.9
					c-14.7,22.4-16.6,102.5-16.6,114.7c0,81.9,1.2,102.5,25.8,102.5c16.3,0,25.5-17.5,25.5-54V693.7z"/>
				<path class="st2" d="M968.7,710.6v19.3c0,78.5,14.1,89.3,19.9,89.3c4,0,9.2-5.5,9.2-15.3c0-26.1,7.4-61.1,41.1-69.6
					c1.2-0.3,2.1,0.6,1.8,1.2c-7.1,14.4-5.5,25.5-5.5,34.1c0,17.2,4.6,42.3,9.8,52.8c0.3,0.6,0.6,1.2-0.6,1.2H902.4V818h4.3
					c4.9-10.7,21.2-49.7,21.2-112.9c0-55.2-17.5-96.6-21.2-106.2h-4.3v-5.5h135.9c1.2,0,1.5,0.6,1.2,1.8c-4,14.7-6.7,34.1-6.7,43.6
					c0,9.2,1.5,30.4,7.4,42c0.6,1.2,0,1.8-1.2,1.5c-45.1-11.4-45.4-52.5-45.4-66.6c0-8.3-1.2-16.9-7.4-16.9
					c-13.5,0-17.5,50.3-17.5,89.3v15.6h5.8c10.7,0,18.1-7.4,18.1-21.5c0-6.4-2.1-12-5.8-19c-0.3-0.6-0.6-1.2,0-1.8l2.5-1.8
					c0.9-0.6,1.5-0.6,1.8,0c4.9,6.1,19.9,21.8,19.9,46c0,24.9-10.7,39.3-18.7,47.2c-0.6,0.6-1.2,1.2-1.8,0.6l-3.1-2.8
					c-0.9-0.9-0.6-1.2,0.9-3.1c6.1-8,5.2-21.5,2.5-27c-3.4-7.4-10.4-10.1-16.3-10.1H968.7z"/>
				<path class="st2" d="M121.7,846.7c-4.2,13.7-7,29.8-7,49.7c0,24.5,12.6,91,18.6,114.5h0.7c8.4-51.5,13.3-90,13.3-120.1
					c0-17.2-1.4-31.2-4.9-44.1h-6.7v-6.3h61.6v6.3h-5.6c-31.2,46.9-60.9,211.8-70,256.2h-15.1c-9.8-72.1-36.1-189-69.3-256.2H26.2
					v-6.3h104v6.3H121.7z"/>
				<path class="st2" d="M278.2,1104.4c-23.5,0-85.1-15.4-85.1-133c0-116.2,62.3-132.3,85.1-132.3c22.8,0,84,16.1,84,132.3
					C362.2,1089,300.9,1104.4,278.2,1104.4z M278.2,845.3c-22.1,0-23.8,31.2-23.8,126.7c0,94.9,1.8,126,23.8,126
					c21,0,22.8-31.2,22.8-126C300.9,876.5,299.2,845.3,278.2,845.3z"/>
				<path class="st2" d="M374.1,1103v-6.3h4.9c7.7-15.1,24.9-57.4,24.9-129.5c0-64.4-22.1-115.5-24.9-120.4h-4.9v-6.3h106.8v6.3
					h-4.9c-2.8,4.9-24.9,56-24.9,120.4c0,38.2,0.4,129.5,23.1,129.5c10.5,0,11.9-25.9,11.9-38.2c0-34.3,30.8-58.1,50.8-58.1
					c1.4,0,1.4,0.7,1.1,1.4c-6.3,12.6-7.4,32.6-7.4,41c0,13,1.8,48.7,10.5,58.8c0.7,0.7,0.7,1.4,0,1.4H374.1z"/>
				<path class="st2" d="M604.4,846.7c-4.2,13.7-7,29.8-7,49.7c0,24.5,12.6,91,18.6,114.5h0.7c8.4-51.5,13.3-90,13.3-120.1
					c0-17.2-1.4-31.2-4.9-44.1h-6.7v-6.3H680v6.3h-5.6c-31.2,46.9-60.9,211.8-70,256.2h-15.1c-9.8-72.1-36.1-189-69.3-256.2h-11.2
					v-6.3h104v6.3H604.4z"/>
				<path class="st2" d="M759.1,974.2v22.1c0,89.6,16.1,101.9,22.8,101.9c4.5,0,10.5-6.3,10.5-17.5c0-29.8,8.4-69.7,46.9-79.5
					c1.4-0.4,2.5,0.7,2.1,1.4c-8.1,16.4-6.3,29.1-6.3,38.9c0,19.6,5.3,48.3,11.2,60.2c0.4,0.7,0.7,1.4-0.7,1.4H683.5v-6.3h4.9
					c5.6-12.3,24.2-56.7,24.2-128.8c0-63-20-110.3-24.2-121.1h-4.9v-6.3h155.1c1.4,0,1.8,0.7,1.4,2.1c-4.5,16.8-7.7,38.9-7.7,49.7
					c0,10.5,1.8,34.7,8.4,48c0.7,1.4,0,2.1-1.4,1.8c-51.5-13-51.8-59.9-51.8-76c0-9.5-1.4-19.3-8.4-19.3c-15.4,0-20,57.4-20,101.9
					v17.9h6.7c12.3,0,20.7-8.4,20.7-24.5c0-7.4-2.5-13.7-6.7-21.7c-0.3-0.7-0.7-1.4,0-2.1l2.8-2.1c1-0.7,1.8-0.7,2.1,0
					c5.6,7,22.8,24.9,22.8,52.5c0,28.4-12.3,44.8-21.4,53.9c-0.7,0.7-1.4,1.4-2.1,0.7l-3.5-3.2c-1-1.1-0.7-1.4,1.1-3.5
					c7-9.1,6-24.5,2.8-30.8c-3.9-8.4-11.9-11.6-18.6-11.6H759.1z"/>
				<path class="st2" d="M936.6,993.4c0,55.7,18.6,92.4,24.2,103.3h7.7v6.3H865.2v-6.3h4.9c7-15.8,20-59.5,20-133.7
					c0-68.6-15-105.4-20-116.2h-4.9v-6.3h112c20.3,0,60.6,7,60.6,66.5c0,35.4-17.5,57.4-50.8,64.8v0.7c36.8,11.5,49.4,27.3,49.4,91
					c0,11.2,0.7,19.6,7.3,19.6c3.5,0,7.7-2.8,8.4-7.7c0,0,0-0.7,0.7-0.7h2.8c0.7,0,0.7,0.7,0.7,1.4c0,5.3-2.1,28.4-38.9,28.4
					c-31.9,0-40.3-22.1-40.3-41.7c0-10.9,4.2-22.1,4.2-42c0-20.3-3.5-44.5-29.8-44.5h-15.1V993.4z M945.3,969.3
					c30.1,0,34.7-26.3,34.7-63c0-28.4-3.9-59.5-22.8-59.5c-20.3,0-20.7,80.2-20.7,104.7v17.9H945.3z"/>
			</g>
		</g>
		<g class="st1">
			<g>
				<path class="st2" d="M90,1278.5v11c0,29.1,12,73.3,22.4,95.7h3.7v5.5H23.7v-5.5h4.9c4.9-10.7,22.1-53.4,22.1-116.6
					c0-57.1-19-98.2-21.5-102.5h-4.3v-5.5h89.3v5.5h-3.1c-11.7,20.6-21.2,69.6-21.2,91.1v14.4h52.8v-14.4c0-21.5-9.8-70.6-21.2-91.1
					h-3.7v-5.5h93.3v5.5H206c-6.8,13.8-23.9,47.2-23.9,102.5c0,57.1,18.4,106.5,22.1,116.6h4.3v5.5h-89.3v-5.5h3.1
					c11.4-22.4,20.6-66.6,20.6-95.7v-11H90z"/>
				<path class="st2" d="M360.9,1385.2v5.5h-87.4v-5.5h5.5c6.4-10.1,8.9-37.1,8.9-44.2c0-6.7,0-9.2-1.2-17.5h-31.9
					c-1.2,5.8-1.2,12.6-1.2,16.9c0,12.6,3.4,34.1,8.9,44.8h5.5v5.5h-55.8v-5.5h5.5c26.7-35.3,45.4-141.4,68.4-224.6h12.3
					c8,62.6,26.7,166.3,57.7,224.6H360.9z M286,1316.8c-0.6-12.9-10.7-59.5-14.1-75.5h-0.6c-4,15.3-14.4,63.8-15.6,75.5H286z"/>
				<path class="st2" d="M497.4,1166.2c-29.8,43-45.7,91.7-55.2,118.4c0,56.5,15.6,89.9,20.6,100.6h5.5v5.5h-95.4v-5.5h6.1
					c6.8-15.6,21.2-41.1,21.2-97c-6.7-43.9-34.7-97.9-48.5-122.1h-6.1v-5.5h94.2v5.5h-7.1c-4,10.1-6.4,30.4-6.4,37.1
					c0,21.2,6.1,43,15.3,66c10.1-25.5,12.6-59.5,12.6-67.2c0-9.8-1.2-25.8-4.9-35.9h-5.8v-5.5h58.9v5.5H497.4z"/>
				<path class="st2" d="M738.6,1346.6c4.6,0,9.5-1.5,11.4-3.1c0.6-0.3,0.9,0,0.9,0.6c0,19.3-4.6,49.7-26.7,49.7
					c-14.1,0-20.6-8-27.9-13.5c-13.5,9.2-27.3,11.7-35.3,11.7c-20.6,0-74.6-13.5-74.6-116.6c0-102.5,54.3-116,74.6-116
					c20.2,0,73.6,13.5,73.6,116c0,24.9-4.3,54-9.2,63.8C727.8,1342.3,733.4,1346.6,738.6,1346.6z M680.9,1275.4
					c0-83.8-1.5-110.5-19.9-110.5c-19.3,0-20.9,26.7-20.9,110.5c0,23,0.3,52.8,0.6,67.5h0.6c4-8.6,18.4-27.9,39.6-24.9V1275.4z
					 M660.9,1386.5c13.8,0,16.6-12.6,18.4-37.7c-5.5-7.1-11.7-11.4-19-11.4c-10.1,0-18.1,18.1-18.1,27.3
					C643.5,1378.5,651.1,1386.5,660.9,1386.5z"/>
				<path class="st2" d="M862.8,1261c0-25.2-10.4-74.9-18.4-94.8H838v-5.5h58.9v5.5H892c-16,35.3-21.5,77.6-21.5,94.8v68.4
					c0,18.7-1.8,62.6-40.5,62.6c-16,0-62.6-1.8-62.6-58.9v-82.5c0-30.4-8.6-62.6-19.9-84.4h-6.1v-5.5h91.7v5.5h-4.9
					c-14.7,22.4-16.6,102.5-16.6,114.7c0,81.9,1.2,102.5,25.8,102.5c16.3,0,25.5-17.5,25.5-54V1261z"/>
				<path class="st2" d="M968.7,1277.8v19.3c0,78.5,14.1,89.3,19.9,89.3c4,0,9.2-5.5,9.2-15.3c0-26.1,7.4-61.1,41.1-69.6
					c1.2-0.3,2.1,0.6,1.8,1.2c-7.1,14.4-5.5,25.5-5.5,34.1c0,17.2,4.6,42.3,9.8,52.8c0.3,0.6,0.6,1.2-0.6,1.2H902.4v-5.5h4.3
					c4.9-10.7,21.2-49.7,21.2-112.9c0-55.2-17.5-96.6-21.2-106.2h-4.3v-5.5h135.9c1.2,0,1.5,0.6,1.2,1.8c-4,14.7-6.7,34.1-6.7,43.6
					c0,9.2,1.5,30.4,7.4,42c0.6,1.2,0,1.8-1.2,1.5c-45.1-11.4-45.4-52.5-45.4-66.6c0-8.3-1.2-16.9-7.4-16.9
					c-13.5,0-17.5,50.3-17.5,89.3v15.6h5.8c10.7,0,18.1-7.4,18.1-21.5c0-6.4-2.1-12-5.8-19c-0.3-0.6-0.6-1.2,0-1.8l2.5-1.8
					c0.9-0.6,1.5-0.6,1.8,0c4.9,6.1,19.9,21.8,19.9,46c0,24.9-10.7,39.3-18.7,47.2c-0.6,0.6-1.2,1.2-1.8,0.6l-3.1-2.8
					c-0.9-0.9-0.6-1.2,0.9-3.1c6.1-8,5.2-21.5,2.5-27c-3.4-7.4-10.4-10.1-16.3-10.1H968.7z"/>
				<path class="st2" d="M121.7,1414c-4.2,13.7-7,29.8-7,49.7c0,24.5,12.6,91,18.6,114.5h0.7c8.4-51.5,13.3-90,13.3-120.1
					c0-17.2-1.4-31.2-4.9-44.1h-6.7v-6.3h61.6v6.3h-5.6c-31.2,46.9-60.9,211.8-70,256.2h-15.1c-9.8-72.1-36.1-189-69.3-256.2H26.2
					v-6.3h104v6.3H121.7z"/>
				<path class="st2" d="M278.2,1671.6c-23.5,0-85.1-15.4-85.1-133c0-116.2,62.3-132.3,85.1-132.3c22.8,0,84,16.1,84,132.3
					C362.2,1656.2,300.9,1671.6,278.2,1671.6z M278.2,1412.6c-22.1,0-23.8,31.2-23.8,126.7c0,94.9,1.8,126,23.8,126
					c21,0,22.8-31.2,22.8-126C300.9,1443.8,299.2,1412.6,278.2,1412.6z"/>
				<path class="st2" d="M374.1,1670.2v-6.3h4.9c7.7-15.1,24.9-57.4,24.9-129.5c0-64.4-22.1-115.5-24.9-120.4h-4.9v-6.3h106.8v6.3
					h-4.9c-2.8,4.9-24.9,56-24.9,120.4c0,38.2,0.4,129.5,23.1,129.5c10.5,0,11.9-25.9,11.9-38.2c0-34.3,30.8-58.1,50.8-58.1
					c1.4,0,1.4,0.7,1.1,1.4c-6.3,12.6-7.4,32.6-7.4,41c0,13,1.8,48.7,10.5,58.8c0.7,0.7,0.7,1.4,0,1.4H374.1z"/>
				<path class="st2" d="M604.4,1414c-4.2,13.7-7,29.8-7,49.7c0,24.5,12.6,91,18.6,114.5h0.7c8.4-51.5,13.3-90,13.3-120.1
					c0-17.2-1.4-31.2-4.9-44.1h-6.7v-6.3H680v6.3h-5.6c-31.2,46.9-60.9,211.8-70,256.2h-15.1c-9.8-72.1-36.1-189-69.3-256.2h-11.2
					v-6.3h104v6.3H604.4z"/>
				<path class="st2" d="M759.1,1541.4v22.1c0,89.6,16.1,101.9,22.8,101.9c4.5,0,10.5-6.3,10.5-17.5c0-29.8,8.4-69.7,46.9-79.5
					c1.4-0.4,2.5,0.7,2.1,1.4c-8.1,16.4-6.3,29.1-6.3,38.9c0,19.6,5.3,48.3,11.2,60.2c0.4,0.7,0.7,1.4-0.7,1.4H683.5v-6.3h4.9
					c5.6-12.3,24.2-56.7,24.2-128.8c0-63-20-110.3-24.2-121.1h-4.9v-6.3h155.1c1.4,0,1.8,0.7,1.4,2.1c-4.5,16.8-7.7,38.9-7.7,49.7
					c0,10.5,1.8,34.7,8.4,48c0.7,1.4,0,2.1-1.4,1.8c-51.5-13-51.8-59.9-51.8-76c0-9.5-1.4-19.3-8.4-19.3c-15.4,0-20,57.4-20,101.9
					v17.9h6.7c12.3,0,20.7-8.4,20.7-24.5c0-7.4-2.5-13.7-6.7-21.7c-0.3-0.7-0.7-1.4,0-2.1l2.8-2.1c1-0.7,1.8-0.7,2.1,0
					c5.6,7,22.8,24.9,22.8,52.5c0,28.4-12.3,44.8-21.4,53.9c-0.7,0.7-1.4,1.4-2.1,0.7l-3.5-3.2c-1-1.1-0.7-1.4,1.1-3.5
					c7-9.1,6-24.5,2.8-30.8c-3.9-8.4-11.9-11.6-18.6-11.6H759.1z"/>
				<path class="st2" d="M936.6,1560.7c0,55.7,18.6,92.4,24.2,103.3h7.7v6.3H865.2v-6.3h4.9c7-15.8,20-59.5,20-133.7
					c0-68.6-15-105.4-20-116.2h-4.9v-6.3h112c20.3,0,60.6,7,60.6,66.5c0,35.4-17.5,57.4-50.8,64.8v0.7c36.8,11.5,49.4,27.3,49.4,91
					c0,11.2,0.7,19.6,7.3,19.6c3.5,0,7.7-2.8,8.4-7.7c0,0,0-0.7,0.7-0.7h2.8c0.7,0,0.7,0.7,0.7,1.4c0,5.3-2.1,28.4-38.9,28.4
					c-31.9,0-40.3-22.1-40.3-41.7c0-10.9,4.2-22.1,4.2-42c0-20.3-3.5-44.5-29.8-44.5h-15.1V1560.7z M945.3,1536.5
					c30.1,0,34.7-26.3,34.7-63c0-28.4-3.9-59.5-22.8-59.5c-20.3,0-20.7,80.2-20.7,104.7v17.9H945.3z"/>
			</g>
		</g>
		<g class="st1">
			<g>
				<path class="st2" d="M90,1845.7v11c0,29.1,12,73.3,22.4,95.7h3.7v5.5H23.7v-5.5h4.9c4.9-10.7,22.1-53.4,22.1-116.6
					c0-57.1-19-98.2-21.5-102.5h-4.3v-5.5h89.3v5.5h-3.1C99.5,1754,90,1803.1,90,1824.6v14.4h52.8v-14.4c0-21.5-9.8-70.6-21.2-91.1
					h-3.7v-5.5h93.3v5.5H206c-6.8,13.8-23.9,47.2-23.9,102.5c0,57.1,18.4,106.5,22.1,116.6h4.3v5.5h-89.3v-5.5h3.1
					c11.4-22.4,20.6-66.6,20.6-95.7v-11H90z"/>
				<path class="st2" d="M360.9,1952.5v5.5h-87.4v-5.5h5.5c6.4-10.1,8.9-37.1,8.9-44.2c0-6.7,0-9.2-1.2-17.5h-31.9
					c-1.2,5.8-1.2,12.6-1.2,16.9c0,12.6,3.4,34.1,8.9,44.8h5.5v5.5h-55.8v-5.5h5.5c26.7-35.3,45.4-141.4,68.4-224.6h12.3
					c8,62.6,26.7,166.3,57.7,224.6H360.9z M286,1884.1c-0.6-12.9-10.7-59.5-14.1-75.5h-0.6c-4,15.3-14.4,63.8-15.6,75.5H286z"/>
				<path class="st2" d="M497.4,1733.4c-29.8,43-45.7,91.7-55.2,118.4c0,56.5,15.6,89.9,20.6,100.6h5.5v5.5h-95.4v-5.5h6.1
					c6.8-15.6,21.2-41.1,21.2-97c-6.7-43.9-34.7-97.9-48.5-122.1h-6.1v-5.5h94.2v5.5h-7.1c-4,10.1-6.4,30.4-6.4,37.1
					c0,21.2,6.1,43,15.3,66c10.1-25.5,12.6-59.5,12.6-67.2c0-9.8-1.2-25.8-4.9-35.9h-5.8v-5.5h58.9v5.5H497.4z"/>
				<path class="st2" d="M738.6,1913.8c4.6,0,9.5-1.5,11.4-3.1c0.6-0.3,0.9,0,0.9,0.6c0,19.3-4.6,49.7-26.7,49.7
					c-14.1,0-20.6-8-27.9-13.5c-13.5,9.2-27.3,11.7-35.3,11.7c-20.6,0-74.6-13.5-74.6-116.6c0-102.5,54.3-116,74.6-116
					c20.2,0,73.6,13.5,73.6,116c0,24.9-4.3,54-9.2,63.8C727.8,1909.5,733.4,1913.8,738.6,1913.8z M680.9,1842.7
					c0-83.8-1.5-110.5-19.9-110.5c-19.3,0-20.9,26.7-20.9,110.5c0,23,0.3,52.8,0.6,67.5h0.6c4-8.6,18.4-27.9,39.6-24.9V1842.7z
					 M660.9,1953.7c13.8,0,16.6-12.6,18.4-37.7c-5.5-7.1-11.7-11.4-19-11.4c-10.1,0-18.1,18.1-18.1,27.3
					C643.5,1945.7,651.1,1953.7,660.9,1953.7z"/>
				<path class="st2" d="M862.8,1828.2c0-25.2-10.4-74.9-18.4-94.8H838v-5.5h58.9v5.5H892c-16,35.3-21.5,77.6-21.5,94.8v68.4
					c0,18.7-1.8,62.6-40.5,62.6c-16,0-62.6-1.8-62.6-58.9v-82.5c0-30.4-8.6-62.6-19.9-84.4h-6.1v-5.5h91.7v5.5h-4.9
					c-14.7,22.4-16.6,102.5-16.6,114.7c0,81.9,1.2,102.5,25.8,102.5c16.3,0,25.5-17.5,25.5-54V1828.2z"/>
				<path class="st2" d="M968.7,1845.1v19.3c0,78.5,14.1,89.3,19.9,89.3c4,0,9.2-5.5,9.2-15.3c0-26.1,7.4-61.1,41.1-69.6
					c1.2-0.3,2.1,0.6,1.8,1.2c-7.1,14.4-5.5,25.5-5.5,34.1c0,17.2,4.6,42.3,9.8,52.8c0.3,0.6,0.6,1.2-0.6,1.2H902.4v-5.5h4.3
					c4.9-10.7,21.2-49.7,21.2-112.9c0-55.2-17.5-96.6-21.2-106.2h-4.3v-5.5h135.9c1.2,0,1.5,0.6,1.2,1.8c-4,14.7-6.7,34.1-6.7,43.6
					c0,9.2,1.5,30.4,7.4,42c0.6,1.2,0,1.8-1.2,1.5c-45.1-11.4-45.4-52.5-45.4-66.6c0-8.3-1.2-16.9-7.4-16.9
					c-13.5,0-17.5,50.3-17.5,89.3v15.6h5.8c10.7,0,18.1-7.4,18.1-21.5c0-6.4-2.1-12-5.8-19c-0.3-0.6-0.6-1.2,0-1.8l2.5-1.8
					c0.9-0.6,1.5-0.6,1.8,0c4.9,6.1,19.9,21.8,19.9,46c0,24.9-10.7,39.3-18.7,47.2c-0.6,0.6-1.2,1.2-1.8,0.6l-3.1-2.8
					c-0.9-0.9-0.6-1.2,0.9-3.1c6.1-8,5.2-21.5,2.5-27c-3.4-7.4-10.4-10.1-16.3-10.1H968.7z"/>
			</g>
		</g>
	</g>
</g>
</svg>
