<?xml version="1.0" encoding="utf-8"?>
<!-- Generator: Adobe Illustrator 19.1.0, SVG Export Plug-In . SVG Version: 6.00 Build 0)  -->
<svg version="1.1" id="Layer_1" xmlns="http://www.w3.org/2000/svg" xmlns:xlink="http://www.w3.org/1999/xlink" x="0px" y="0px"
	 viewBox="0 0 220 150" style="enable-background:new 0 0 220 150;" xml:space="preserve">
<style type="text/css">
	.st0{opacity:0.2;}
	.st1{fill:#222222;}
</style>
<g class="st0">
	<g>
		<path class="st1" d="M82.7,51c0-7.9,0-15.8,0-23.8c0-10.9,5.2-18.7,15.5-22.3c11.2-3.9,20.9,2,24.2,12.7c1.1,3.4,1.1,7,0.8,10.6
			c-0.1,2.1-0.9,2.9-3.1,3.1c-1.5,0.1-3,0.1-4.5,0.1c-1.8,0-2.6-1-2.7-2.7c-0.1-1.9-0.1-3.8-0.3-5.7c-0.5-5.9-3.6-9.2-8.9-9.4
			c-5.2-0.3-9.8,3.3-11,8.4c-0.3,1.3-0.4,2.6-0.4,3.9c0,15.8,0,31.7,0,47.5c0,1,0,2,0.2,3c0.9,5.3,4.3,8.4,9.1,8.3
			c5.5-0.1,10.3-3.9,10.9-9c0.8-6.8,0.3-13.6,0.3-20.4c0-1.5-0.8-2.1-2.3-1.8c-1.2,0.2-2.5,0.2-3.7,0.3c-1.2,0-2-0.4-1.9-1.7
			c0.2-1.5-0.1-3-0.3-4.5c-0.3-2.3,0.5-3.4,2.8-3.6c4.4-0.4,8.8-0.5,13.2-1c2.2-0.3,2.7,0.5,2.7,3.5c0,9,0,18-0.1,26.9
			c-0.1,7.7-3.6,13.8-10,18.1c-7.7,5.2-17.5,4.8-24.4-1.1c-4.5-3.9-6.2-9.1-6.2-15C82.7,67.3,82.7,59.1,82.7,51z"/>
		<path class="st1" d="M215.7,130c-1.8-1.2-3.2-2.7-4.8-4.1c-9.1-8.2-20-12.2-32-13.3c-15.7-1.4-31.1,0.4-46.3,3.7
			c-18.1,3.9-35.7,9.5-53.4,14.6c-16.9,4.8-33.6,10.5-50.8,14.5c-5.4,1.3-11.3,1.2-16.8-0.5c-4.9-1.6-8.4-6.6-8.4-11.7
			c0-1.2,0.2-2.4,0-3.6c-0.5-2.9,1-5.2,2.4-7.5c1.6-2.6,4.7-3.2,6.6-1.5c1.6,1.4,1.8,2.6,0.6,4.3c-1,1.4-2.2,2.7-3.1,4.1
			c-3.4,5.4-0.6,10.6,5.7,10.9c5.1,0.3,9.9-0.9,14.7-2.5c17.7-5.9,35.5-11.6,53.4-16.6c17.7-5,35.6-9.3,53.9-12
			c13.5-2,27-2.8,40.6-1.3c12.4,1.3,23.7,5.4,33,14c2,1.9,3.7,4,4.6,6.6C215.7,128.6,216.1,129.2,215.7,130z"/>
		<path class="st1" d="M47.7,56.3c0-14.1,0-28.1,0-42.2c0-3.7,1.1-4.7,4.7-4.5c1.1,0,2.3,0.1,3.4-0.1c1.5-0.2,2.1,0.3,2,1.8
			c-0.7,10.7-0.1,21.5-0.2,32.3c-0.1,13.2-0.1,26.4-0.2,39.6c0,1.1,0,2.2,0,3.4c0.2,2.8,1.1,3.7,3.9,3.4c3.9-0.4,7.7-0.9,11.6-1.4
			c1.2-0.1,2.4-0.3,3.5-0.4c2-0.1,2.6,0.6,2.6,2.5c0,1.4-0.2,2.8-0.1,4.1c0.2,2-0.6,2.9-2.6,3.1c-6.5,0.7-13,1.5-19.4,2.3
			c-2.4,0.3-4.8,0.6-7.3,0.9c-1.3,0.1-2.1-0.3-2-1.9c0.1-7.5,0.1-14.9,0.2-22.4C47.8,70,47.7,63.2,47.7,56.3
			C47.7,56.3,47.7,56.3,47.7,56.3z"/>
		<path class="st1" d="M29.7,51.2c0,11.5,0.1,22.9,0,34.4c-0.1,10.9-9.4,20.1-20.7,20.6c-0.5,0-0.9,0.1-1.4,0
			c-1.5-0.2-3.9,0.7-4.3-0.8c-0.7-2.3-0.5-5,1.5-7c1.3-1.3,2.9-1.8,4.6-2.1c7.7-1.3,10.7-4.7,10.7-12.6c0-19.1,0.1-38.3,0.1-57.4
			c0-3.5,0.3-7-0.2-10.5c-0.2-1.3,0.4-2,1.7-2.2c2.3-0.5,4.6-0.6,6.9-0.7c1.6-0.1,1.4,1,1.4,2c0,10,0,19.9,0.1,29.9
			c0,2.1,0,4.2,0,6.3C29.9,51.2,29.8,51.2,29.7,51.2z"/>
		<path class="st1" d="M217,57.6c0,5.9,0,11.7,0,17.6c0,1.1-0.3,1.9-0.9,2.7c-4,5-10.3,7.2-15.8,5.3c-2.4-0.8-3.7-2.4-4.3-4.7
			c-0.2-1.2-0.4-2.3-0.4-3.5c0-10.3,0-20.6,0-30.9c0-3.9,0.8-7.4,4.1-10c5.7-4.3,13.7-2.7,16.7,3.4c0.4,0.8,0.5,1.6,0.5,2.5
			C217,45.9,217,51.8,217,57.6z M210.7,56.7C210.7,56.7,210.7,56.7,210.7,56.7c0-5.3,0-10.6,0-15.8c0-1.6-0.2-3.1-1.9-3.7
			c-2.7-1.1-5.4,0.4-6,3.2c-0.2,1-0.3,2.1-0.3,3.1c0,9.9,0,19.8,0,29.7c0,0.8,0,1.6,0.1,2.4c0.3,1.9,1.4,2.9,3.4,2.9
			c2.5,0,3.9-1.1,4.4-3.6c0.3-1.2,0.3-2.5,0.3-3.7C210.7,66.3,210.7,61.5,210.7,56.7z"/>
		<path class="st1" d="M189.3,51.2c-0.3,3.9,0.3,9-0.2,14c-0.2,1.6,0.7,2.7,2.3,2.9c1,0.2,1.7,0.5,1.6,1.6c0,1.1,0.5,2.5-1,3.1
			c-2.4,1.1-3.1,3-2.8,5.5c0.2,1.5,0.2,3,0.1,4.5c-0.1,2.4-2.9,4.1-5.1,3.1c-0.9-0.4-1.2-1.2-1.2-2.1c0-1.6,0-3.2,0-4.7
			c-0.1-3.1-0.9-3.9-3.9-3.7c-2,0.1-4.1,0.4-6.1,0.5c-3.8,0.2-4.9-1-3.9-4.6c1.5-5.4,3.2-10.7,4.8-16.1c1.6-5.3,3.2-10.5,4.8-15.8
			c0.9-2.9,6.8-5.6,9.6-4.4c1.1,0.5,1.1,1.6,1.1,2.5C189.3,41.7,189.3,45.9,189.3,51.2z M182.6,57.3c0-3.1,0-6.2,0-9.3
			c0-0.5,0.1-1.1-0.6-1.3c-0.8-0.1-0.7,0.6-0.9,1.1c-0.7,2.4-1.4,4.8-2.1,7.2c-1.1,4-2.3,8.1-3.3,12.2c-0.5,1.9,0,2.4,2,2.3
			c1-0.1,2.1-0.4,3.1-0.5c1-0.1,1.4-0.6,1.6-1.6C182.7,64,182.7,60.7,182.6,57.3z"/>
		<path class="st1" d="M153.2,55.4c-0.5,4.5,0.3,9.5-0.2,14.5c-0.1,1.5,0.7,2.2,2.1,2.3c1.2,0.1,1.8,0.8,1.8,2
			c0,1.2,0.2,2.4-1.1,3.1c-3,1.6-3.3,2.3-2.7,5.7c0.3,1.5,0.3,3,0,4.5c-0.5,2.3-3.2,3.5-5.2,2.5c-0.8-0.4-1-1.2-0.9-2
			c0.1-1.6,0.2-3.3,0.3-4.9c0.2-3.1-1.1-4.4-4.3-4c-2.1,0.3-4.1,0.9-6.2,1.2c-3,0.5-4.3-0.7-3.8-3.7c0.7-3.8,1.9-7.5,3.1-11.2
			c2.1-7.2,4.4-14.3,6.6-21.4c0.9-2.9,6.4-5.7,9.3-4.8c1,0.3,1.3,1,1.3,1.9C153.2,45.7,153.2,50.3,153.2,55.4z M138.9,73.9
			c2.2-0.2,4.1-0.5,6.1-0.6c1.3-0.1,1.6-0.6,1.7-1.8c0.8-7,0.2-14,0.2-21c0-0.4,0.1-1-0.6-1c-0.7-0.1-0.6,0.6-0.7,1
			c-0.9,2.9-1.7,5.8-2.5,8.7C141.7,64,140.3,68.9,138.9,73.9z"/>
		<path class="st1" d="M160,83.9c0-0.9-0.1-1.7,0-2.6c0.3-1.7,1.4-2.5,3-2.5c1.7,0,2.6,0.9,2.8,2.5c0.2,1.2,0.2,2.5,0.1,3.8
			c-0.2,2.3-1.4,3.3-3.4,3.3c-1.9-0.1-2.5-0.9-2.6-3.4C159.9,84.6,159.9,84.3,160,83.9C160,83.9,160,83.9,160,83.9z"/>
	</g>
</g>
</svg>
