<?xml version="1.0" encoding="utf-8"?>
<!-- Generator: Adobe Illustrator 19.1.0, SVG Export Plug-In . SVG Version: 6.00 Build 0)  -->
<svg version="1.1" id="Layer_1" xmlns="http://www.w3.org/2000/svg" xmlns:xlink="http://www.w3.org/1999/xlink" x="0px" y="0px"
	 viewBox="0 0 285 55" style="enable-background:new 0 0 285 55;" xml:space="preserve">
<style type="text/css">
	.st0{fill:#58767C;}
	.st1{fill:#EADFCF;}
</style>
<path class="st0" d="M257.5,55h-230C12.3,55,0,42.7,0,27.5v0C0,12.3,12.3,0,27.5,0l230,0C272.7,0,285,12.3,285,27.5v0
	C285,42.7,272.7,55,257.5,55z"/>
<g>
	<g>
		<g id="XMLID_153_">
			<g id="XMLID_154_">
				<path id="XMLID_169_" class="st1" d="M169.3,21.4c3.3,0,6.1,2.7,6.1,6.1s-2.7,6.1-6.1,6.1c-3.3,0-6.1-2.7-6.1-6.1
					S166,21.4,169.3,21.4 M169.3,17.4c-5.6,0-10.1,4.5-10.1,10.1s4.5,10.1,10.1,10.1c5.6,0,10.1-4.5,10.1-10.1
					S174.9,17.4,169.3,17.4L169.3,17.4z"/>
				<path id="XMLID_166_" class="st1" d="M106.7,18v1.6c-1.7-1.4-4-2.3-6.4-2.3c-5.6,0-10.1,4.5-10.1,10.1c0,5.6,4.5,10.1,10.1,10.1
					c2.4,0,4.6-0.9,6.4-2.3V37h3.7V18H106.7z M100.5,33.8c-3.5,0-6.3-2.8-6.3-6.3s2.8-6.3,6.3-6.3s6.3,2.8,6.3,6.3
					S104,33.8,100.5,33.8z"/>
				<path id="XMLID_163_" class="st1" d="M209.5,18v1.6c-1.7-1.4-4-2.3-6.4-2.3c-5.6,0-10.1,4.5-10.1,10.1c0,5.6,4.5,10.1,10.1,10.1
					c2.4,0,4.6-0.9,6.4-2.3V37h3.7V18H209.5z M203.4,33.8c-3.5,0-6.3-2.8-6.3-6.3s2.8-6.3,6.3-6.3s6.3,2.8,6.3,6.3
					S206.9,33.8,203.4,33.8z"/>
				<path id="XMLID_162_" class="st1" d="M186,19.2c-2.2,1.4-4,3.8-4,8.2V37h4v-9.6h0c0-6.3,6.5-5.9,6.5-5.9v-4v0
					C192.5,17.4,189,17.3,186,19.2z"/>
				<path id="XMLID_161_" class="st1" d="M129.6,19.4c-1.7-1.3-3.8-2-6.1-2c-2.3,0-4.4,0.8-6.1,2c-2.5,1.8-4,4.8-4,8.1V37h4v-1.4
					v-8.1c0-3.3,2.7-6.1,6.1-6.1c3.3,0,6.1,2.7,6.1,6.1v8.1V37h4v-9.5C133.6,24.2,132,21.3,129.6,19.4z"/>
				<path id="XMLID_158_" class="st1" d="M154.7,12c-1,0-1.9,0.8-1.9,1.9v5.8c-1.7-1.4-4-2.3-6.4-2.3c-5.6,0-10.1,4.5-10.1,10.1
					c0,5.6,4.5,10.1,10.1,10.1c2.4,0,4.6-0.9,6.4-2.3V37h3.7V13.8V12H154.7z M146.6,33.8c-3.5,0-6.3-2.8-6.3-6.3
					c0-3.5,2.8-6.3,6.3-6.3s6.3,2.8,6.3,6.3C152.9,31,150.1,33.8,146.6,33.8z"/>
				<path id="XMLID_155_" class="st1" d="M77.8,17.4c-2.4,0-4.6,0.9-6.4,2.3V18h-3.7v23.1V43h1.9c1,0,1.9-0.8,1.9-1.9v-5.8
					c1.7,1.4,4,2.3,6.4,2.3c5.6,0,10.1-4.5,10.1-10.1C87.9,21.9,83.3,17.4,77.8,17.4z M77.5,33.8c-3.5,0-6.3-2.8-6.3-6.3
					c0-3.5,2.8-6.3,6.3-6.3c3.5,0,6.3,2.8,6.3,6.3C83.8,31,81,33.8,77.5,33.8z"/>
			</g>
		</g>
		<g>
			<path class="st1" d="M217,18c-1,0-1.9-0.8-1.9-1.9c0-1,0.8-1.9,1.9-1.9c1,0,1.9,0.8,1.9,1.9C218.8,17.2,218,18,217,18z M217,14.5
				c-0.9,0-1.6,0.7-1.6,1.6c0,0.9,0.7,1.6,1.6,1.6c0.9,0,1.6-0.7,1.6-1.6C218.6,15.3,217.9,14.5,217,14.5z M217.5,17.2l-0.6-0.8
				h-0.4v0.8h-0.3v-2.1h0.9c0.4,0,0.6,0.3,0.6,0.6c0,0.5-0.4,0.6-0.5,0.6l0.6,0.9H217.5z M217.2,15.3h-0.6v0.8h0.6
				c0.2,0,0.4-0.2,0.4-0.4C217.5,15.5,217.3,15.3,217.2,15.3z"/>
		</g>
	</g>
</g>
</svg>
