<?xml version="1.0" encoding="utf-8"?>
<!-- Generator: Adobe Illustrator 19.1.0, SVG Export Plug-In . SVG Version: 6.00 Build 0)  -->
<svg version="1.1" id="Layer_1" xmlns="http://www.w3.org/2000/svg" xmlns:xlink="http://www.w3.org/1999/xlink" x="0px" y="0px"
	 viewBox="0 0 290 60" style="enable-background:new 0 0 290 60;" xml:space="preserve">
<style type="text/css">
	.st0{fill:#222222;}
	.st1{fill:#EADFCF;}
</style>
<g>
	<path class="st0" d="M260.8,57.5H29.2C14.1,57.5,1.8,45.2,1.8,30v0c0-15.2,12.3-27.5,27.5-27.5h231.5c15.2,0,27.5,12.3,27.5,27.5v0
		C288.3,45.2,275.9,57.5,260.8,57.5z"/>
	<g>
		<g>
			<g id="XMLID_153_">
				<g id="XMLID_154_">
					<path id="XMLID_169_" class="st1" d="M165.9,25.2c2.7,0,4.8,2.2,4.8,4.8s-2.2,4.8-4.8,4.8c-2.7,0-4.8-2.2-4.8-4.8
						S163.2,25.2,165.9,25.2 M165.9,21.9c-4.5,0-8.1,3.6-8.1,8.1s3.6,8.1,8.1,8.1c4.5,0,8.1-3.6,8.1-8.1S170.3,21.9,165.9,21.9
						L165.9,21.9z"/>
					<path id="XMLID_166_" class="st1" d="M115.8,22.4v1.3c-1.4-1.1-3.2-1.8-5.1-1.8c-4.5,0-8.1,3.6-8.1,8.1c0,4.5,3.6,8.1,8.1,8.1
						c1.9,0,3.7-0.7,5.1-1.8v1.3h3V22.4H115.8z M110.8,35c-2.8,0-5-2.3-5-5s2.3-5,5-5c2.8,0,5,2.3,5,5S113.6,35,110.8,35z"/>
					<path id="XMLID_163_" class="st1" d="M198,22.4v1.3c-1.4-1.1-3.2-1.8-5.1-1.8c-4.5,0-8.1,3.6-8.1,8.1c0,4.5,3.6,8.1,8.1,8.1
						c1.9,0,3.7-0.7,5.1-1.8v1.3h3V22.4H198z M193.1,35c-2.8,0-5-2.3-5-5s2.3-5,5-5c2.8,0,5,2.3,5,5S195.9,35,193.1,35z"/>
					<path id="XMLID_162_" class="st1" d="M179.2,23.4c-1.7,1.1-3.2,3.1-3.2,6.5v7.6h3.2v-7.6h0c0-5,5.2-4.8,5.2-4.8v-3.2v0
						C184.4,21.9,181.6,21.9,179.2,23.4z"/>
					<path id="XMLID_161_" class="st1" d="M134.1,23.5c-1.4-1-3-1.6-4.8-1.6s-3.5,0.6-4.8,1.6c-2,1.5-3.2,3.8-3.2,6.5v7.6h3.2v-1.1
						V30c0-2.7,2.2-4.8,4.8-4.8c2.7,0,4.8,2.2,4.8,4.8v6.5v1.1h3.2V30C137.3,27.4,136,25,134.1,23.5z"/>
					<path id="XMLID_158_" class="st1" d="M154.1,17.6c-0.8,0-1.5,0.7-1.5,1.5v4.7c-1.4-1.1-3.2-1.8-5.1-1.8c-4.5,0-8.1,3.6-8.1,8.1
						c0,4.5,3.6,8.1,8.1,8.1c1.9,0,3.7-0.7,5.1-1.8v1.3h3V19.1v-1.5H154.1z M147.7,35c-2.8,0-5-2.3-5-5c0-2.8,2.3-5,5-5
						c2.8,0,5,2.3,5,5C152.7,32.8,150.5,35,147.7,35z"/>
					<path id="XMLID_155_" class="st1" d="M92.6,21.9c-1.9,0-3.7,0.7-5.1,1.8v-1.3h-3v18.5v1.5H86c0.8,0,1.5-0.7,1.5-1.5v-4.7
						c1.4,1.1,3.2,1.8,5.1,1.8c4.5,0,8.1-3.6,8.1-8.1C100.7,25.5,97.1,21.9,92.6,21.9z M92.4,35c-2.8,0-5-2.3-5-5c0-2.8,2.3-5,5-5
						s5,2.3,5,5C97.5,32.8,95.2,35,92.4,35z"/>
				</g>
			</g>
			<g>
				<path class="st1" d="M204,22.4c-0.8,0-1.5-0.7-1.5-1.5c0-0.8,0.7-1.5,1.5-1.5c0.8,0,1.5,0.7,1.5,1.5
					C205.5,21.8,204.8,22.4,204,22.4z M204,19.6c-0.7,0-1.3,0.6-1.3,1.3c0,0.7,0.6,1.3,1.3,1.3c0.7,0,1.3-0.6,1.3-1.3
					C205.3,20.2,204.7,19.6,204,19.6z M204.4,21.8l-0.4-0.7h-0.3v0.7h-0.2v-1.7h0.7c0.3,0,0.5,0.2,0.5,0.5c0,0.4-0.3,0.5-0.4,0.5
					l0.5,0.7H204.4z M204.1,20.3h-0.5v0.6h0.5c0.1,0,0.3-0.1,0.3-0.3C204.4,20.4,204.3,20.3,204.1,20.3z"/>
			</g>
		</g>
	</g>
</g>
</svg>
