<?xml version="1.0" encoding="utf-8"?>
<!-- Generator: Adobe Illustrator 19.1.0, SVG Export Plug-In . SVG Version: 6.00 Build 0)  -->
<svg version="1.1" id="Layer_1" xmlns="http://www.w3.org/2000/svg" xmlns:xlink="http://www.w3.org/1999/xlink" x="0px" y="0px"
	 viewBox="0 0 290 60" style="enable-background:new 0 0 290 60;" xml:space="preserve">
<style type="text/css">
	.st0{fill:#222222;}
	.st1{fill:#EADFCF;}
</style>
<g>
	<path class="st0" d="M260.8,57.5H29.2C14.1,57.5,1.8,45.2,1.8,30v0c0-15.2,12.3-27.5,27.5-27.5h231.5c15.2,0,27.5,12.3,27.5,27.5v0
		C288.3,45.2,275.9,57.5,260.8,57.5z"/>
	<g>
		<path class="st1" d="M121.1,30c0,8-6.5,14.6-14.8,14.4c-7.7-0.2-14.2-6.6-14-14.8c0.2-7.7,6.6-14.3,14.8-14
			C114.9,15.8,121.2,22.1,121.1,30z M102.7,23.6c-0.3,0-0.6,0-1,0.1c-1.2,0.1-2.3,0.2-3.5,0.4c-0.2,0-0.5,0.1-0.7,0.2
			c-0.6,0.3-0.9,1-0.7,1.7c0.2,0.6,0.9,1,1.6,0.9c1.6-0.3,3.2-0.5,4.9-0.5c0.9,0,1.7,0,2.6,0.1c2,0.2,3.9,0.6,5.7,1.2
			c1.3,0.4,2.6,1,3.9,1.6c0.7,0.3,1.5,0.1,1.8-0.6c0.3-0.7,0.1-1.5-0.6-1.8c-0.4-0.2-0.8-0.4-1.2-0.6c-2.2-1-4.4-1.7-6.8-2.1
			c-1.6-0.3-3.3-0.5-5-0.5C103.5,23.6,103.1,23.6,102.7,23.6z M103.6,28.6c-0.6,0-1.2,0-1.7,0.1c-1.1,0.1-2.2,0.2-3.3,0.5
			c-0.6,0.1-1,0.7-0.9,1.3c0.1,0.6,0.6,1,1.2,0.9c0.2,0,0.5-0.1,0.7-0.1c1.2-0.2,2.4-0.4,3.7-0.4c0.8,0,1.6,0,2.4,0.1
			c1.5,0.2,3,0.5,4.5,0.9c1.2,0.4,2.4,0.9,3.6,1.5c0.6,0.3,1.2,0.1,1.5-0.5c0.3-0.5,0.1-1.2-0.5-1.5c-1.4-0.7-2.8-1.3-4.2-1.8
			C108.3,28.9,106,28.6,103.6,28.6z M103.8,33c-0.7,0-1.3,0-2,0.1c-0.9,0.1-1.7,0.2-2.6,0.4c-0.5,0.1-0.8,0.6-0.7,1
			c0.1,0.5,0.6,0.8,1.1,0.6c1.3-0.3,2.6-0.5,3.9-0.5c0.6,0,1.2,0,1.8,0.1c1.5,0.1,2.9,0.4,4.3,0.9c0.9,0.3,1.9,0.8,2.7,1.3
			c0.1,0.1,0.3,0.1,0.4,0.1c0.4,0,0.7-0.3,0.8-0.7c0.1-0.4-0.1-0.7-0.4-0.9c-1.1-0.6-2.3-1.2-3.6-1.6
			C107.6,33.4,105.6,33.1,103.8,33z"/>
		<path class="st1" d="M188.2,33.4c0.2-0.5,0.4-0.9,0.6-1.4c0.5-1.3,1.1-2.6,1.6-3.9c0.2-0.4,0.4-0.8,0.5-1.3
			c0.1-0.1,0.1-0.2,0.3-0.2c0.9,0,1.7,0,2.6,0c0.2,0,0.3,0,0.2,0.3c-0.8,1.7-1.5,3.5-2.3,5.2c-0.7,1.5-1.4,3.1-2,4.6
			c-0.5,1.2-1.1,2.4-1.6,3.6c-0.1,0.1-0.1,0.2-0.3,0.2c-0.9,0-1.8,0-2.8,0c-0.2,0-0.3-0.1-0.2-0.3c0.6-1.3,1.2-2.6,1.7-3.8
			c0-0.1,0-0.1,0-0.2c-0.7-1.5-1.4-3-2.1-4.5c-0.4-0.9-0.8-1.8-1.2-2.6c0-0.1-0.1-0.1-0.2-0.1c-0.7,0-1.4,0-2,0
			c-0.1,0-0.2,0-0.2,0.2c0,2.6,0,5.2,0,7.8c0,0.2,0,0.2-0.2,0.2c-0.8,0-1.7,0-2.5,0c-0.2,0-0.3,0-0.3-0.2c0-2.6,0-5.2,0-7.7
			c0-0.1,0-0.2-0.2-0.2c-0.5,0-1,0-1.6,0c-0.2,0-0.2,0-0.2-0.2c0-0.7,0-1.3,0-2c0-0.2,0-0.2,0.2-0.2c0.5,0,1,0,1.5,0
			c0.2,0,0.2,0,0.2-0.2c0-0.6,0-1.1,0.1-1.7c0.3-1.3,0.9-2.3,2.2-2.7c0.9-0.3,1.7-0.3,2.6,0c0.2,0.1,0.5,0.2,0.7,0.3
			c0.1,0,0.2,0.1,0.2,0.2c0.3,0.7,0.6,1.5,0.9,2.2c0,0.1,0.1,0.1,0,0.2c-0.1,0.1-0.1,0-0.2,0c-0.4-0.2-0.9-0.5-1.4-0.5
			c-0.6-0.1-1.1,0-1.5,0.4c-0.3,0.3-0.5,0.7-0.5,1.1c0,0.2,0,0.5,0,0.7c0,0.1,0,0.2,0.2,0.2c1.4,0,2.8,0,4.2,0c0.2,0,0.2,0,0.3,0.2
			c0.5,1.3,1.1,2.6,1.6,3.9C187.5,31.7,187.9,32.5,188.2,33.4z"/>
		<path class="st1" d="M142,28.9c0.3-0.4,0.6-0.9,1-1.2c0.8-0.7,1.7-1.1,2.7-1.1c1.1,0,2.1,0.3,3,1c0.9,0.7,1.4,1.6,1.7,2.7
			c0.4,1.5,0.3,3-0.3,4.4c-0.6,1.4-1.6,2.4-3.1,2.8c-1.4,0.4-2.8,0.1-3.9-0.9c-0.4-0.3-0.7-0.7-0.9-1.1c0-0.1-0.1-0.1-0.1-0.2
			c0,0.1,0,0.1,0,0.2c0,1.7,0,3.4,0,5.1c0,0.3,0,0.3-0.3,0.3c-0.8,0-1.6,0-2.4,0c-0.3,0-0.3,0-0.3-0.3c0-4.5,0-8.9,0-13.4
			c0-0.3,0-0.3,0.3-0.3c0.8,0,1.7,0,2.5,0c0.2,0,0.2,0,0.2,0.2C142,27.6,142,28.2,142,28.9z M147.5,32c0-0.4,0-0.8-0.1-1.1
			c-0.2-0.7-0.6-1.2-1.2-1.5c-1-0.5-2.3-0.3-3.2,0.6c-0.5,0.5-0.8,1.2-1.1,1.9c0,0.1,0,0.1,0,0.2c0.3,0.8,0.7,1.5,1.3,2
			c0.5,0.5,1.2,0.8,1.9,0.8c0.7,0,1.3-0.3,1.7-0.8C147.4,33.4,147.5,32.7,147.5,32z"/>
		<path class="st1" d="M127.1,34c0-0.5,0-1,0-1.4c0-0.1,0-0.2,0.1-0.2c0.1,0,0.1,0,0.2,0.1c1.3,1.4,2.9,2.2,4.7,2.4
			c0.7,0.1,1.3,0,2-0.2c0.7-0.3,1-0.9,0.9-1.6c0-0.6-0.4-0.9-0.9-1.2c-0.6-0.3-1.2-0.5-1.8-0.6c-0.9-0.3-1.9-0.5-2.8-0.9
			c-0.7-0.3-1.3-0.7-1.8-1.3c-0.4-0.6-0.6-1.2-0.6-1.9c-0.1-1,0.2-1.9,0.8-2.7c0.6-0.7,1.3-1.2,2.2-1.6c1-0.4,2-0.5,3.1-0.4
			c1.1,0.1,2.1,0.3,3.1,0.8c0.3,0.1,0.6,0.3,0.9,0.5c0.1,0.1,0.1,0.2,0.1,0.3c0,0.9,0,1.7,0,2.6c0,0.1,0,0.2-0.1,0.2
			c-0.1,0-0.2,0-0.2-0.1c-1-0.8-2.1-1.3-3.3-1.5c-0.9-0.1-1.7-0.1-2.5,0.2c-0.4,0.2-0.8,0.4-0.9,0.9c-0.2,0.6-0.1,1.1,0.6,1.4
			c0.5,0.2,1.1,0.4,1.6,0.6c1,0.3,2,0.5,2.9,1c0.7,0.3,1.4,0.8,1.9,1.4c0.5,0.6,0.7,1.2,0.7,2c0.1,0.8-0.1,1.5-0.4,2.2
			c-0.4,0.9-1,1.5-1.8,1.9c-0.8,0.5-1.7,0.7-2.7,0.7c-1.5,0.1-2.9-0.2-4.3-0.8c-0.6-0.2-1.1-0.6-1.5-1c-0.1-0.1-0.1-0.2-0.1-0.3
			C127.1,34.9,127.1,34.5,127.1,34z"/>
		<path class="st1" d="M157.1,26.4c1.1,0,2,0.2,2.9,0.6c1.5,0.8,2.4,1.9,2.8,3.5c0.4,1.9,0.1,3.6-1.2,5c-0.9,1-2.1,1.6-3.4,1.8
			c-1.1,0.2-2.1,0.1-3.2-0.3c-1.9-0.7-3.1-1.9-3.5-3.9c-0.4-1.6-0.2-3.1,0.7-4.4c0.7-1.1,1.8-1.9,3.1-2.2
			C156,26.5,156.6,26.4,157.1,26.4z M157.2,34.9c1,0,1.8-0.4,2.4-1.3c0.3-0.5,0.5-1.2,0.4-1.8c0-0.7-0.2-1.3-0.7-1.8
			c-0.6-0.8-1.5-1.1-2.5-1c-0.9,0.1-1.5,0.5-2,1.2c-0.4,0.6-0.5,1.2-0.4,1.9C154.5,33.8,155.7,34.9,157.2,34.9z"/>
		<path class="st1" d="M165,31.6c0-0.8,0-1.6,0-2.3c0-0.1,0-0.2-0.1-0.1c-0.5,0-1.1,0-1.6,0c-0.2,0-0.2,0-0.2-0.2c0-0.4,0-0.7,0-1.1
			c0-0.1,0-0.2,0.2-0.3c1.5-1.2,3-2.4,4.5-3.6c0.1-0.1,0.2-0.2,0.3-0.1c0.1,0.1,0.1,0.2,0.1,0.3c0,0.8,0,1.6,0,2.4
			c0,0.1,0,0.2,0.2,0.2c0.8,0,1.6,0,2.4,0c0.2,0,0.2,0,0.2,0.2c0,0.7,0,1.3,0,2c0,0.2,0,0.2-0.2,0.2c-0.8,0-1.6,0-2.4,0
			c-0.1,0-0.2,0-0.2,0.2c0,1.4,0,2.7,0,4.1c0,0.4,0.1,0.8,0.4,1.1c0.2,0.3,0.6,0.4,0.9,0.4c0.5,0,0.9-0.1,1.3-0.3
			c0.2-0.1,0.2-0.1,0.2,0.1c0,0.6,0,1.3,0,1.9c0,0.1,0,0.2-0.2,0.3c-0.5,0.3-1.1,0.4-1.6,0.5c-0.7,0.1-1.4,0-2.1-0.3
			c-0.9-0.4-1.4-1-1.7-1.9c-0.2-0.5-0.2-1-0.2-1.6C165,33,165,32.3,165,31.6z"/>
		<path class="st1" d="M171.9,32c0-1.7,0-3.4,0-5.1c0-0.2,0-0.2,0.2-0.2c0.9,0,1.7,0,2.6,0c0.2,0,0.2,0,0.2,0.2c0,0.7,0,1.3,0,2
			c0,2.7,0,5.4,0,8.1c0,0.3,0,0.3-0.3,0.3c-0.8,0-1.7,0-2.5,0c-0.3,0-0.3,0-0.3-0.3C171.9,35.3,171.9,33.7,171.9,32z"/>
		<path class="st1" d="M175.2,23.6c0,0.9-0.6,1.6-1.5,1.7c-0.6,0.1-1.1,0-1.5-0.4c-0.7-0.7-0.7-1.9,0.1-2.5c0.7-0.6,1.9-0.5,2.5,0.2
			C175,22.7,175.2,23.1,175.2,23.6z"/>
		<path class="st1" d="M194.4,28.1c0-0.8,0.5-1.6,1.6-1.6c1,0,1.6,0.7,1.6,1.6c0,0.9-0.7,1.6-1.7,1.6
			C195.1,29.7,194.4,29,194.4,28.1z M197.4,28.2c0-0.8-0.5-1.3-1.3-1.3c-0.8,0-1.3,0.5-1.3,1.3c0,0.8,0.5,1.3,1.3,1.3
			C196.8,29.4,197.4,28.9,197.4,28.2z"/>
		<path class="st1" d="M196.8,28.8C196.8,28.8,196.8,28.8,196.8,28.8c-0.3,0.1-0.5,0-0.6-0.3c0-0.1-0.1-0.2-0.2-0.3
			c0-0.1-0.1,0-0.2,0c-0.1,0,0,0.1,0,0.1c0,0.1,0,0.2,0,0.4c0,0.1,0,0.1-0.1,0.1c-0.1,0-0.1,0-0.2,0c-0.1,0-0.1,0-0.1-0.1
			c0-0.4,0-0.9,0-1.3c0,0,0-0.1,0.1-0.1c0.3,0,0.6,0,0.9,0c0.2,0,0.4,0.2,0.4,0.3c0,0.2-0.1,0.4-0.3,0.5c-0.1,0-0.1,0.1,0,0.1
			C196.6,28.5,196.7,28.6,196.8,28.8z M196,27.6c-0.2,0-0.2,0-0.2,0.2c0,0,0,0,0,0.1c0,0,0,0.1,0,0.1c0.2,0,0.3,0,0.5,0
			c0.1,0,0.1-0.1,0.1-0.1c0-0.1,0-0.1-0.1-0.1C196.2,27.6,196.1,27.6,196,27.6z"/>
	</g>
</g>
</svg>
