<?xml version="1.0" encoding="utf-8"?>
<!-- Generator: Adobe Illustrator 19.1.0, SVG Export Plug-In . SVG Version: 6.00 Build 0)  -->
<svg version="1.1" id="Layer_1" xmlns="http://www.w3.org/2000/svg" xmlns:xlink="http://www.w3.org/1999/xlink" x="0px" y="0px"
	 viewBox="0 0 285 55" style="enable-background:new 0 0 285 55;" xml:space="preserve">
<style type="text/css">
	.st0{fill:#58767C;}
	.st1{fill:#EADFCF;}
</style>
<path class="st0" d="M257.5,55h-230C12.3,55,0,42.7,0,27.5v0C0,12.3,12.3,0,27.5,0l230,0C272.7,0,285,12.3,285,27.5v0
	C285,42.7,272.7,55,257.5,55z"/>
<g>
	<path class="st1" d="M113.9,28.1c0,10-8.2,18.3-18.5,18c-9.6-0.3-17.7-8.2-17.5-18.5c0.2-9.7,8.2-17.8,18.6-17.5
		C106.1,10.4,113.9,18.3,113.9,28.1z M90.9,20.1c-0.4,0-0.8,0-1.2,0.1c-1.5,0.1-2.9,0.3-4.4,0.6c-0.3,0.1-0.6,0.1-0.8,0.2
		c-0.8,0.4-1.1,1.3-0.8,2.1c0.3,0.8,1.1,1.3,1.9,1.1c2-0.4,4-0.6,6.1-0.6c1.1,0,2.1,0,3.2,0.1c2.4,0.2,4.8,0.7,7.2,1.5
		c1.7,0.5,3.3,1.2,4.9,2c0.8,0.4,1.8,0.1,2.3-0.7c0.4-0.8,0.1-1.9-0.7-2.3c-0.5-0.3-1-0.5-1.5-0.8c-2.7-1.2-5.5-2.1-8.5-2.7
		c-2.1-0.4-4.1-0.6-6.2-0.6C91.8,20.1,91.3,20.1,90.9,20.1z M92,26.4c-0.7,0-1.5,0-2.2,0.1c-1.4,0.1-2.7,0.3-4.1,0.6
		c-0.7,0.2-1.2,0.8-1.1,1.6c0.1,0.7,0.7,1.2,1.5,1.2c0.3,0,0.6-0.1,0.9-0.2c1.5-0.3,3.1-0.4,4.6-0.5c1,0,2,0,3,0.1
		c1.9,0.2,3.8,0.6,5.6,1.2c1.6,0.5,3,1.2,4.5,1.9c0.7,0.4,1.5,0.1,1.9-0.6c0.3-0.7,0.1-1.5-0.6-1.9c-1.7-0.9-3.5-1.7-5.3-2.2
		C97.8,26.8,94.9,26.4,92,26.4z M92.1,31.9c-0.9,0-1.7,0-2.4,0.1c-1.1,0.1-2.2,0.3-3.3,0.5c-0.6,0.1-1,0.7-0.9,1.3
		c0.1,0.6,0.7,0.9,1.3,0.8c1.6-0.4,3.2-0.6,4.9-0.6c0.7,0,1.5,0,2.2,0.1c1.8,0.2,3.6,0.6,5.3,1.2c1.2,0.4,2.3,0.9,3.4,1.6
		c0.2,0.1,0.3,0.1,0.5,0.1c0.5,0,0.9-0.4,1-0.8c0.1-0.5-0.1-0.9-0.6-1.2c-1.4-0.8-2.9-1.5-4.5-2C96.9,32.3,94.5,32,92.1,31.9z"/>
	<path class="st1" d="M197.7,32.3c0.2-0.6,0.5-1.2,0.7-1.7c0.7-1.6,1.3-3.2,2-4.8c0.2-0.5,0.4-1.1,0.7-1.6c0.1-0.2,0.1-0.2,0.3-0.2
		c1.1,0,2.2,0,3.2,0c0.3,0,0.3,0.1,0.2,0.3c-1,2.2-1.9,4.4-2.9,6.5c-0.8,1.9-1.7,3.8-2.5,5.8c-0.7,1.5-1.3,3-2,4.5
		c-0.1,0.2-0.2,0.2-0.4,0.2c-1.2,0-2.3,0-3.5,0c-0.3,0-0.3-0.1-0.2-0.3c0.7-1.6,1.5-3.2,2.2-4.8c0-0.1,0-0.2,0-0.2
		c-0.9-1.9-1.7-3.7-2.6-5.6c-0.5-1.1-1-2.2-1.5-3.3c-0.1-0.1-0.1-0.2-0.2-0.2c-0.8,0-1.7,0-2.5,0c-0.2,0-0.2,0-0.2,0.2
		c0,3.2,0,6.5,0,9.7c0,0.3,0,0.3-0.3,0.3c-1.1,0-2.1,0-3.2,0c-0.3,0-0.3,0-0.3-0.3c0-3.2,0-6.4,0-9.7c0-0.2,0-0.2-0.2-0.2
		c-0.7,0-1.3,0-2,0c-0.2,0-0.3,0-0.3-0.3c0-0.8,0-1.7,0-2.5c0-0.3,0-0.3,0.3-0.3c0.6,0,1.3,0,1.9,0c0.2,0,0.2-0.1,0.2-0.2
		c0-0.7,0-1.4,0.1-2.1c0.3-1.6,1.1-2.8,2.7-3.4c1.1-0.4,2.1-0.3,3.2,0c0.3,0.1,0.6,0.2,0.8,0.3c0.1,0.1,0.2,0.1,0.2,0.3
		c0.4,0.9,0.8,1.8,1.1,2.8c0,0.1,0.1,0.1,0,0.2c-0.1,0.1-0.2,0-0.2,0c-0.5-0.3-1.1-0.6-1.7-0.7c-0.7-0.1-1.3,0-1.9,0.5
		c-0.4,0.3-0.6,0.8-0.7,1.4c0,0.3,0,0.6,0,0.9c0,0.2,0,0.2,0.2,0.2c1.7,0,3.5,0,5.2,0c0.2,0,0.3,0.1,0.4,0.2
		c0.7,1.6,1.4,3.3,2.1,4.9C196.8,30.2,197.3,31.3,197.7,32.3z"/>
	<path class="st1" d="M140,26.7c0.4-0.6,0.8-1.1,1.2-1.6c0.9-0.9,2.1-1.4,3.4-1.4c1.4,0,2.6,0.3,3.7,1.2c1.1,0.9,1.7,2,2.1,3.3
		c0.5,1.9,0.4,3.7-0.3,5.5c-0.7,1.7-2,3-3.8,3.4c-1.8,0.4-3.4,0.1-4.9-1.1c-0.5-0.4-0.8-0.9-1.2-1.4c0-0.1-0.1-0.2-0.1-0.2
		c0,0.1,0,0.1,0,0.2c0,2.1,0,4.2,0,6.4c0,0.3,0,0.3-0.3,0.3c-1,0-2,0-3,0c-0.3,0-0.4,0-0.4-0.4c0-5.6,0-11.2,0-16.7
		c0-0.3,0-0.3,0.3-0.3c1,0,2.1,0,3.1,0c0.3,0,0.3,0,0.3,0.3C140,25.1,140,25.9,140,26.7z M146.9,30.6c0-0.5-0.1-0.9-0.2-1.4
		c-0.2-0.8-0.7-1.5-1.5-1.9c-1.3-0.7-2.9-0.4-4,0.8c-0.6,0.7-1,1.4-1.3,2.3c0,0.1,0,0.2,0,0.3c0.3,1,0.9,1.8,1.6,2.5
		c0.7,0.6,1.5,1,2.4,1c0.9,0,1.6-0.4,2.1-1.1C146.7,32.4,146.9,31.5,146.9,30.6z"/>
	<path class="st1" d="M121.4,33.1c0-0.6,0-1.2,0-1.8c0-0.1,0-0.2,0.1-0.2c0.1,0,0.2,0,0.2,0.1c1.6,1.8,3.6,2.7,5.9,3
		c0.8,0.1,1.7,0,2.5-0.3c0.9-0.3,1.2-1.1,1.2-2c0-0.8-0.5-1.2-1.1-1.5c-0.7-0.4-1.5-0.6-2.3-0.8c-1.2-0.3-2.4-0.6-3.5-1.1
		c-0.9-0.4-1.6-0.9-2.2-1.7c-0.5-0.7-0.7-1.5-0.8-2.3c-0.1-1.2,0.2-2.4,1-3.4c0.7-0.9,1.7-1.5,2.8-2c1.3-0.5,2.6-0.6,3.9-0.5
		c1.4,0.1,2.7,0.4,3.9,0.9c0.4,0.2,0.7,0.4,1.1,0.6c0.1,0.1,0.2,0.2,0.2,0.4c0,1.1,0,2.1,0,3.2c0,0.1,0,0.2-0.1,0.3
		c-0.1,0.1-0.2,0-0.3-0.1c-1.2-1-2.6-1.6-4.2-1.9c-1.1-0.2-2.1-0.1-3.1,0.3c-0.5,0.2-1,0.5-1.2,1.1c-0.3,0.8-0.1,1.4,0.8,1.8
		c0.7,0.3,1.4,0.5,2,0.7c1.2,0.4,2.5,0.7,3.6,1.2c0.9,0.4,1.8,1,2.4,1.8c0.6,0.7,0.8,1.6,0.9,2.5c0.1,1-0.1,1.9-0.5,2.8
		c-0.5,1.1-1.3,1.9-2.3,2.4c-1,0.6-2.2,0.9-3.4,0.9c-1.9,0.1-3.7-0.2-5.4-0.9c-0.7-0.3-1.4-0.7-1.9-1.3c-0.1-0.1-0.2-0.3-0.2-0.4
		C121.4,34.3,121.4,33.7,121.4,33.1z"/>
	<path class="st1" d="M158.8,23.7c1.3,0,2.5,0.2,3.6,0.8c1.8,0.9,3,2.4,3.5,4.4c0.5,2.3,0.1,4.4-1.5,6.3c-1.1,1.3-2.6,2-4.3,2.3
		c-1.3,0.2-2.7,0.1-4-0.3c-2.3-0.8-3.9-2.4-4.4-4.8c-0.5-2-0.2-3.8,0.9-5.5c0.9-1.4,2.3-2.3,3.9-2.8
		C157.4,23.8,158.2,23.7,158.8,23.7z M158.9,34.3c1.3,0,2.3-0.5,3-1.7c0.4-0.7,0.6-1.4,0.5-2.2c0-0.8-0.3-1.6-0.8-2.2
		c-0.8-1-1.9-1.3-3.1-1.2c-1.1,0.1-1.9,0.6-2.5,1.6c-0.5,0.7-0.6,1.5-0.6,2.4C155.6,32.9,157,34.3,158.9,34.3z"/>
	<path class="st1" d="M168.8,30.1c0-1,0-1.9,0-2.9c0-0.1,0-0.2-0.2-0.2c-0.7,0-1.3,0-2,0c-0.3,0-0.3,0-0.3-0.3c0-0.4,0-0.9,0-1.3
		c0-0.2,0.1-0.3,0.2-0.4c1.9-1.5,3.8-3,5.7-4.5c0.1-0.1,0.2-0.2,0.3-0.2c0.1,0.1,0.1,0.3,0.1,0.4c0,1,0,2,0,3c0,0.2,0,0.2,0.2,0.2
		c1,0,2,0,3,0c0.3,0,0.3,0,0.3,0.3c0,0.8,0,1.6,0,2.5c0,0.2,0,0.3-0.3,0.3c-1,0-2,0-3,0c-0.2,0-0.2,0-0.2,0.2c0,1.7,0,3.4,0,5.1
		c0,0.5,0.1,1,0.5,1.4c0.3,0.3,0.7,0.5,1.1,0.5c0.6,0,1.1-0.1,1.6-0.4c0.2-0.1,0.3-0.1,0.3,0.2c0,0.8,0,1.6,0,2.4
		c0,0.2-0.1,0.3-0.2,0.4c-0.6,0.3-1.3,0.5-2.1,0.6c-0.9,0.1-1.8,0-2.7-0.3c-1.1-0.5-1.8-1.3-2.1-2.4c-0.2-0.6-0.3-1.3-0.3-1.9
		C168.8,31.9,168.8,31,168.8,30.1z"/>
	<path class="st1" d="M177.3,30.6c0-2.1,0-4.2,0-6.3c0-0.3,0-0.3,0.3-0.3c1.1,0,2.1,0,3.2,0c0.3,0,0.3,0,0.3,0.3c0,0.8,0,1.6,0,2.4
		c0,3.4,0,6.7,0,10.1c0,0.4,0,0.4-0.4,0.4c-1,0-2.1,0-3.1,0c-0.3,0-0.3,0-0.3-0.3C177.3,34.8,177.3,32.7,177.3,30.6z"/>
	<path class="st1" d="M181.4,20.1c0,1.1-0.8,2-1.9,2.1c-0.7,0.1-1.4-0.1-1.9-0.5c-0.9-0.8-0.9-2.4,0.1-3.2c0.9-0.7,2.3-0.6,3.1,0.2
		C181.2,19,181.4,19.5,181.4,20.1z"/>
	<path class="st1" d="M205.5,25.8c0-1,0.7-2,2-2c1.2,0,2,0.9,2,2c0,1.2-0.9,2-2.1,2C206.3,27.8,205.4,26.9,205.5,25.8z M209.1,25.8
		c0-1-0.7-1.6-1.6-1.6c-1,0-1.7,0.7-1.7,1.6c0,1,0.7,1.6,1.6,1.6C208.5,27.4,209.1,26.8,209.1,25.8z"/>
	<path class="st1" d="M208.5,26.7C208.5,26.7,208.5,26.7,208.5,26.7c-0.4,0.1-0.6,0-0.8-0.3c-0.1-0.1-0.2-0.2-0.2-0.3
		c-0.1-0.1-0.1-0.1-0.2-0.1c-0.1,0,0,0.1-0.1,0.1c0,0.2,0,0.3,0,0.5c0,0.1,0,0.2-0.1,0.1c-0.1,0-0.1,0-0.2,0c-0.1,0-0.1,0-0.1-0.1
		c0-0.6,0-1.1,0-1.7c0-0.1,0-0.1,0.1-0.1c0.4,0,0.7,0,1.1,0c0.3,0.1,0.5,0.2,0.5,0.4c0,0.3-0.1,0.5-0.4,0.6c-0.1,0-0.1,0.1,0,0.1
		C208.1,26.2,208.3,26.4,208.5,26.7z M207.5,25.2c-0.3,0-0.3,0-0.3,0.3c0,0,0,0.1,0,0.1c0,0,0,0.1,0.1,0.1c0.2,0,0.4,0,0.6,0
		c0.1,0,0.1-0.1,0.1-0.2c0-0.1,0-0.1-0.1-0.2C207.7,25.2,207.6,25.2,207.5,25.2z"/>
</g>
</svg>
