<?xml version="1.0" encoding="utf-8"?>
<!-- Generator: Adobe Illustrator 19.1.0, SVG Export Plug-In . SVG Version: 6.00 Build 0)  -->
<svg version="1.1" id="Layer_1" xmlns="http://www.w3.org/2000/svg" xmlns:xlink="http://www.w3.org/1999/xlink" x="0px" y="0px"
	 viewBox="0 0 285 55" style="enable-background:new 0 0 285 55;" xml:space="preserve">
<style type="text/css">
	.st0{fill:#58767C;}
	.st1{fill:#EADFCF;}
</style>
<path class="st0" d="M257.5,55h-230C12.3,55,0,42.7,0,27.5v0C0,12.3,12.3,0,27.5,0l230,0C272.7,0,285,12.3,285,27.5v0
	C285,42.7,272.7,55,257.5,55z"/>
<g>
	<g>
		<g>
			<path class="st1" d="M120.4,38.4H116V22.8h-5.7V19h15.8v3.8h-5.7V38.4z"/>
			<path class="st1" d="M143.7,38.4h-4.4V19h4.4V38.4z"/>
			<path class="st1" d="M221.7,34.5h7.6v3.8h-12.1V19h4.4V34.5z"/>
		</g>
		<path class="st1" d="M158.4,19h7.2c5.3,0,10.5,2.8,10.5,9.6c0,6.4-5.2,9.7-10.3,9.7l-7.4,0V19z M162.7,34.6h2.7
			c3.7,0,6.1-2.3,6.1-6c0-3.5-2.5-5.8-6-5.8h-2.8V34.6z"/>
		<path class="st1" d="M200.6,38.4h4.9l-8-19.4H193l-8.1,19.4h4.7l1.4-3.8h8.2L200.6,38.4z M192.3,31.1l2.9-7.6l2.9,7.6H192.3z"/>
	</g>
	<g>
		<rect x="71.1" y="17.8" transform="matrix(0.7071 -0.7071 0.7071 0.7071 6.5721 59.5344)" class="st1" width="8" height="8"/>
		<rect x="71.1" y="29.2" transform="matrix(0.7071 -0.7071 0.7071 0.7071 -1.4395 62.8531)" class="st1" width="8" height="8"/>
		<rect x="59.8" y="17.8" transform="matrix(0.7071 -0.7071 0.7071 0.7071 3.2527 51.5221)" class="st1" width="8" height="8"/>
		<rect x="82.5" y="17.8" transform="matrix(0.7071 -0.7071 0.7071 0.7071 9.8909 67.5467)" class="st1" width="8" height="8"/>
	</g>
</g>
</svg>
