<?xml version="1.0" encoding="utf-8"?>
<!-- Generator: Adobe Illustrator 19.1.0, SVG Export Plug-In . SVG Version: 6.00 Build 0)  -->
<svg version="1.1" id="Layer_1" xmlns="http://www.w3.org/2000/svg" xmlns:xlink="http://www.w3.org/1999/xlink" x="0px" y="0px"
	 viewBox="0 0 290 60" style="enable-background:new 0 0 290 60;" xml:space="preserve">
<style type="text/css">
	.st0{fill:#222222;}
	.st1{fill:#EADFCF;}
</style>
<g>
	<path class="st0" d="M260.8,57.5H29.2C14.1,57.5,1.8,45.2,1.8,30v0c0-15.2,12.3-27.5,27.5-27.5h231.5c15.2,0,27.5,12.3,27.5,27.5v0
		C288.3,45.2,275.9,57.5,260.8,57.5z"/>
	<g>
		<g>
			<g>
				<path class="st1" d="M126.4,38.7h-3.5V26.2h-4.5v-3h12.6v3h-4.5V38.7z"/>
				<path class="st1" d="M145,38.7h-3.5V23.2h3.5V38.7z"/>
				<path class="st1" d="M207.4,35.6h6.1v3.1h-9.7V23.2h3.5V35.6z"/>
			</g>
			<path class="st1" d="M156.7,23.2h5.7c4.2,0,8.4,2.2,8.4,7.7c0,5.1-4.1,7.8-8.2,7.8l-5.9,0V23.2z M160.2,35.7h2.2
				c3,0,4.9-1.8,4.9-4.8c0-2.8-2-4.7-4.8-4.7h-2.3V35.7z"/>
			<path class="st1" d="M190.5,38.7h3.9L188,23.2h-3.7l-6.4,15.5h3.8l1.1-3.1h6.5L190.5,38.7z M183.8,32.9l2.3-6.1l2.3,6.1H183.8z"
				/>
		</g>
		<g>
			
				<rect x="86.9" y="22.3" transform="matrix(0.7071 -0.7071 0.7071 0.7071 8.3881 71.1847)" class="st1" width="6.4" height="6.4"/>
			
				<rect x="86.9" y="31.3" transform="matrix(0.7071 -0.7071 0.7071 0.7071 1.9788 73.8396)" class="st1" width="6.4" height="6.4"/>
			
				<rect x="77.8" y="22.3" transform="matrix(0.7071 -0.7071 0.7071 0.7071 5.7322 64.7743)" class="st1" width="6.4" height="6.4"/>
			<rect x="96" y="22.3" transform="matrix(0.7071 -0.7071 0.7071 0.7071 11.0434 77.595)" class="st1" width="6.4" height="6.4"/>
		</g>
	</g>
</g>
</svg>
