<?xml version="1.0" encoding="utf-8"?>
<!-- Generator: Adobe Illustrator 19.1.0, SVG Export Plug-In . SVG Version: 6.00 Build 0)  -->
<svg version="1.1" id="Layer_1" xmlns="http://www.w3.org/2000/svg" xmlns:xlink="http://www.w3.org/1999/xlink" x="0px" y="0px"
	 viewBox="0 0 285 55" style="enable-background:new 0 0 285 55;" xml:space="preserve">
<style type="text/css">
	.st0{fill:#58767C;}
	.st1{fill:#EADFCF;}
</style>
<path class="st0" d="M257.5,55h-230C12.3,55,0,42.7,0,27.5v0C0,12.3,12.3,0,27.5,0l230,0C272.7,0,285,12.3,285,27.5v0
	C285,42.7,272.7,55,257.5,55z"/>
<g>
	<g>
		<g>
			<path class="st1" d="M139.1,38.9c-0.8-0.5-1.3-1.4-1.7-2.5c-0.3-1.1-0.5-2.6-0.5-4.5v-2.5c0-1.9,0.2-3.4,0.6-4.5
				c0.4-1.1,1-2,1.8-2.5c0.8-0.5,1.9-0.8,3.2-0.8c1.3,0,2.3,0.3,3.1,0.8c0.8,0.5,1.3,1.4,1.7,2.5c0.4,1.1,0.5,2.6,0.5,4.5V32
				c0,1.9-0.2,3.3-0.5,4.5c-0.4,1.1-0.9,1.9-1.7,2.5c-0.8,0.5-1.9,0.8-3.2,0.8C141,39.7,139.9,39.4,139.1,38.9z M143.5,36.2
				c0.2-0.6,0.3-1.5,0.3-2.8V28c0-1.2-0.1-2.2-0.3-2.7c-0.2-0.6-0.6-0.9-1.2-0.9c-0.5,0-0.9,0.3-1.1,0.9c-0.2,0.6-0.3,1.5-0.3,2.7
				v5.4c0,1.3,0.1,2.2,0.3,2.8c0.2,0.6,0.6,0.9,1.1,0.9C142.9,37,143.3,36.7,143.5,36.2z"/>
			<path class="st1" d="M199.4,32v0.9c0,1.1,0,2,0.1,2.5c0.1,0.6,0.2,1,0.4,1.2c0.2,0.3,0.5,0.4,1,0.4c0.6,0,1-0.2,1.2-0.7
				c0.2-0.5,0.3-1.2,0.4-2.3l3.4,0.2c0,0.2,0,0.4,0,0.6c0,1.6-0.4,2.8-1.3,3.6c-0.9,0.8-2.1,1.2-3.7,1.2c-1.9,0-3.3-0.6-4.1-1.8
				c-0.8-1.2-1.2-3.1-1.2-5.6v-3c0-2.6,0.4-4.5,1.2-5.7c0.8-1.2,2.2-1.8,4.1-1.8c1.3,0,2.4,0.2,3.1,0.7c0.7,0.5,1.2,1.3,1.5,2.3
				c0.3,1,0.4,2.5,0.4,4.3v3H199.4z M199.9,24.7c-0.2,0.2-0.3,0.6-0.4,1.2c-0.1,0.6-0.1,1.4-0.1,2.5v1.2h2.9v-1.2c0-1.1,0-2-0.1-2.5
				c-0.1-0.6-0.2-1-0.4-1.2c-0.2-0.2-0.5-0.4-0.9-0.4C200.4,24.3,200.1,24.4,199.9,24.7z"/>
			<path class="st1" d="M129.6,31.7l-4.5-16.1h3.9l1.6,7.3c0.4,1.8,0.7,3.3,0.9,4.6h0.1c0.1-0.9,0.4-2.4,0.9-4.6l1.6-7.3h3.9
				l-4.5,16.1v7.7h-3.9V31.7z"/>
			<path class="st1" d="M160.5,22v17.4h-3.1l-0.3-2.1H157c-0.8,1.6-2.1,2.4-3.7,2.4c-1.2,0-2-0.4-2.6-1.1c-0.5-0.8-0.8-1.9-0.8-3.5
				V22h3.9v12.8c0,0.8,0.1,1.3,0.3,1.7c0.2,0.3,0.5,0.5,0.9,0.5c0.3,0,0.7-0.1,1-0.3c0.3-0.2,0.5-0.5,0.7-0.8V22H160.5z"/>
			<path class="st1" d="M180.6,22v17.4h-3.1l-0.3-2.1h-0.1c-0.8,1.6-2.1,2.4-3.7,2.4c-1.2,0-2-0.4-2.6-1.1c-0.5-0.8-0.8-1.9-0.8-3.5
				V22h3.9v12.8c0,0.8,0.1,1.3,0.3,1.7c0.2,0.3,0.5,0.5,0.9,0.5c0.3,0,0.7-0.1,1-0.3c0.3-0.2,0.5-0.5,0.7-0.8V22H180.6z"/>
			<path class="st1" d="M171.1,18.7h-3.9v20.7h-3.8V18.7h-3.9v-3.2h11.6V18.7z"/>
			<path class="st1" d="M193.5,24.8c-0.2-1.1-0.6-1.9-1.2-2.4c-0.5-0.5-1.3-0.7-2.2-0.7c-0.7,0-1.4,0.2-2,0.6
				c-0.6,0.4-1.1,0.9-1.4,1.6h0l0-9.2h-3.8v24.7h3.2l0.4-1.6h0.1c0.3,0.6,0.8,1.1,1.4,1.4c0.6,0.3,1.3,0.5,2,0.5
				c1.3,0,2.3-0.6,2.9-1.8c0.6-1.2,0.9-3.1,0.9-5.7v-2.8C193.9,27.4,193.8,25.9,193.5,24.8z M189.9,31.9c0,1.3-0.1,2.3-0.2,3
				c-0.1,0.7-0.3,1.2-0.5,1.5c-0.2,0.3-0.6,0.5-1,0.5c-0.3,0-0.6-0.1-0.9-0.2c-0.3-0.2-0.5-0.4-0.7-0.7v-9.9
				c0.1-0.5,0.4-0.9,0.7-1.2c0.3-0.3,0.7-0.5,1.1-0.5c0.4,0,0.7,0.2,0.9,0.5c0.2,0.3,0.4,0.8,0.5,1.6c0.1,0.7,0.1,1.8,0.1,3.2V31.9z
				"/>
		</g>
	</g>
	<path class="st1" d="M120.4,17.9c-0.5-1.7-1.8-3.1-3.5-3.5c-3.1-0.8-15.5-0.8-15.5-0.8s-12.4,0-15.5,0.8c-1.7,0.5-3.1,1.8-3.5,3.5
		c-0.8,3.1-0.8,9.6-0.8,9.6s0,6.5,0.8,9.6c0.5,1.7,1.8,3.1,3.5,3.5c3.1,0.8,15.5,0.8,15.5,0.8s12.4,0,15.5-0.8
		c1.7-0.5,3.1-1.8,3.5-3.5c0.8-3.1,0.8-9.6,0.8-9.6S121.2,21,120.4,17.9z M97,33.5V21.5l10.3,6L97,33.5z"/>
</g>
</svg>
