<?xml version="1.0" encoding="utf-8"?>
<!-- Generator: Adobe Illustrator 19.1.0, SVG Export Plug-In . SVG Version: 6.00 Build 0)  -->
<svg version="1.1" id="Layer_1" xmlns="http://www.w3.org/2000/svg" xmlns:xlink="http://www.w3.org/1999/xlink" x="0px" y="0px"
	 viewBox="0 0 290 60" style="enable-background:new 0 0 290 60;" xml:space="preserve">
<style type="text/css">
	.st0{fill:#222222;}
	.st1{fill:#EADFCF;}
</style>
<g>
	<path class="st0" d="M260.8,57.5H29.2C14.1,57.5,1.8,45.2,1.8,30v0c0-15.2,12.3-27.5,27.5-27.5h231.5c15.2,0,27.5,12.3,27.5,27.5v0
		C288.3,45.2,275.9,57.5,260.8,57.5z"/>
	<g>
		<g>
			<g>
				<path class="st1" d="M141.3,39.1c-0.6-0.4-1.1-1.1-1.3-2c-0.3-0.9-0.4-2.1-0.4-3.6v-2c0-1.5,0.2-2.7,0.5-3.6
					c0.3-0.9,0.8-1.6,1.4-2c0.6-0.4,1.5-0.6,2.5-0.6c1,0,1.9,0.2,2.5,0.6c0.6,0.4,1.1,1.1,1.4,2c0.3,0.9,0.4,2.1,0.4,3.6v2
					c0,1.5-0.1,2.7-0.4,3.6c-0.3,0.9-0.7,1.6-1.4,2c-0.6,0.4-1.5,0.6-2.6,0.6C142.8,39.7,141.9,39.5,141.3,39.1z M144.8,36.9
					c0.2-0.5,0.3-1.2,0.3-2.2v-4.3c0-1-0.1-1.7-0.3-2.2c-0.2-0.5-0.5-0.7-0.9-0.7c-0.4,0-0.7,0.2-0.9,0.7c-0.2,0.5-0.3,1.2-0.3,2.2
					v4.3c0,1,0.1,1.8,0.2,2.2c0.2,0.5,0.5,0.7,0.9,0.7C144.3,37.6,144.7,37.4,144.8,36.9z"/>
				<path class="st1" d="M189.6,33.6v0.7c0,0.9,0,1.6,0.1,2c0.1,0.4,0.2,0.8,0.3,1c0.2,0.2,0.4,0.3,0.8,0.3c0.5,0,0.8-0.2,1-0.5
					c0.2-0.4,0.3-1,0.3-1.8l2.7,0.2c0,0.1,0,0.3,0,0.5c0,1.3-0.4,2.2-1.1,2.9c-0.7,0.6-1.7,1-3,1c-1.5,0-2.6-0.5-3.2-1.5
					c-0.6-1-0.9-2.5-0.9-4.5v-2.4c0-2.1,0.3-3.6,1-4.6c0.6-1,1.7-1.4,3.3-1.4c1.1,0,1.9,0.2,2.5,0.6c0.6,0.4,1,1,1.2,1.8
					c0.2,0.8,0.4,2,0.4,3.5v2.4H189.6z M190,27.7c-0.2,0.2-0.3,0.5-0.3,1c-0.1,0.4-0.1,1.1-0.1,2v1h2.3v-1c0-0.9,0-1.6-0.1-2
					c-0.1-0.5-0.2-0.8-0.3-1c-0.2-0.2-0.4-0.3-0.7-0.3C190.4,27.4,190.1,27.5,190,27.7z"/>
				<path class="st1" d="M133.7,33.3l-3.6-12.9h3.1l1.2,5.8c0.3,1.4,0.6,2.7,0.7,3.7h0.1c0.1-0.7,0.3-1.9,0.7-3.7l1.3-5.9h3.1
					l-3.6,12.9v6.2h-3.1V33.3z"/>
				<path class="st1" d="M158.4,25.6v13.9h-2.5l-0.3-1.7h-0.1c-0.7,1.3-1.7,1.9-3,1.9c-0.9,0-1.6-0.3-2-0.9
					c-0.4-0.6-0.7-1.6-0.7-2.8V25.6h3.1v10.2c0,0.6,0.1,1.1,0.2,1.3c0.1,0.3,0.4,0.4,0.7,0.4c0.3,0,0.5-0.1,0.8-0.2
					c0.2-0.2,0.4-0.4,0.6-0.6V25.6H158.4z"/>
				<path class="st1" d="M174.4,25.6v13.9H172l-0.3-1.7h-0.1c-0.7,1.3-1.7,1.9-3,1.9c-0.9,0-1.6-0.3-2-0.9c-0.4-0.6-0.7-1.6-0.7-2.8
					V25.6h3.1v10.2c0,0.6,0.1,1.1,0.2,1.3c0.1,0.3,0.4,0.4,0.7,0.4c0.3,0,0.5-0.1,0.8-0.2c0.2-0.2,0.4-0.4,0.6-0.6V25.6H174.4z"/>
				<path class="st1" d="M166.9,23h-3.1v16.5h-3.1V23h-3.1v-2.5h9.3V23z"/>
				<path class="st1" d="M184.8,27.8c-0.2-0.9-0.5-1.5-0.9-1.9c-0.4-0.4-1-0.6-1.7-0.6c-0.6,0-1.1,0.2-1.6,0.5
					c-0.5,0.3-0.9,0.8-1.2,1.3h0l0-7.3h-3v19.8h2.6l0.3-1.3h0.1c0.2,0.5,0.6,0.8,1.1,1.1c0.5,0.3,1,0.4,1.6,0.4
					c1.1,0,1.8-0.5,2.3-1.5c0.5-1,0.7-2.5,0.7-4.6v-2.2C185.1,29.9,185,28.7,184.8,27.8z M181.9,33.5c0,1,0,1.8-0.1,2.4
					c-0.1,0.6-0.2,1-0.4,1.2c-0.2,0.2-0.5,0.4-0.8,0.4c-0.3,0-0.5-0.1-0.7-0.2c-0.2-0.1-0.4-0.3-0.5-0.5v-7.9
					c0.1-0.4,0.3-0.7,0.5-0.9c0.3-0.2,0.5-0.4,0.8-0.4c0.3,0,0.6,0.1,0.7,0.4c0.2,0.2,0.3,0.7,0.4,1.3c0.1,0.6,0.1,1.4,0.1,2.5V33.5
					z"/>
			</g>
		</g>
		<path class="st1" d="M126.6,22.6c-0.4-1.4-1.4-2.4-2.8-2.8c-2.5-0.7-12.4-0.7-12.4-0.7s-9.9,0-12.4,0.7c-1.4,0.4-2.4,1.4-2.8,2.8
			c-0.7,2.5-0.7,7.6-0.7,7.6s0,5.2,0.7,7.6c0.4,1.4,1.4,2.4,2.8,2.8c2.5,0.7,12.4,0.7,12.4,0.7s9.9,0,12.4-0.7
			c1.4-0.4,2.4-1.4,2.8-2.8c0.7-2.5,0.7-7.6,0.7-7.6S127.3,25,126.6,22.6z M108,35v-9.5l8.3,4.8L108,35z"/>
	</g>
</g>
</svg>
